<?xml version="1.0" encoding="utf-8"?>
<!-- Generator: Adobe Illustrator 23.0.1, SVG Export Plug-In . SVG Version: 6.00 Build 0)  -->
<svg version="1.1" id="Layer_1" xmlns="http://www.w3.org/2000/svg" xmlns:xlink="http://www.w3.org/1999/xlink" x="0px" y="0px"
	 viewBox="0 0 490 494" style="enable-background:new 0 0 490 494;" xml:space="preserve">
<style type="text/css">
	.st0{display:none;}
	.st1{display:inline;}
	.st2{fill:#A37936;}
	.st3{fill:#BC8F40;}
	.st4{fill:none;stroke:#664D21;stroke-width:2;stroke-linecap:round;stroke-miterlimit:10;}
	.st5{fill:#EDD177;}
	.st6{fill:#895203;}
	.st7{display:inline;fill:#BC8F40;}
	.st8{fill:#F7D9AD;}
	.st9{display:inline;fill:#EDD177;}
	.st10{display:inline;fill:#FFF3E1;}
	.st11{display:inline;fill:#546B2B;}
	.st12{display:inline;fill:none;stroke:#664D21;stroke-width:3;stroke-linecap:round;stroke-miterlimit:10;}
	.st13{display:inline;fill:none;stroke:#664D21;stroke-width:7;stroke-linecap:round;stroke-miterlimit:10;}
	.st14{display:inline;fill:#84512F;}
	.st15{fill:none;stroke:#664D21;stroke-width:4;stroke-linecap:round;stroke-miterlimit:10;}
</style>
<g id="backlegs" class="st0">
	<g class="st1">
		<path class="st2" d="M57,685.5c0-20.7-16.8-37.5-37.5-37.5c-16.6,0-30.7,10.8-35.6,25.8c-1.9,5.8,2.5,11.7,8.6,11.7H57"/>
		<path class="st3" d="M89,242H38c0,0,21.6,269.5,6.3,399.5c-2.2-0.3-4.5-0.5-6.8-0.5c-20.7,0-38,14.1-43,33.2
			c-1.5,5.7,2.8,11.3,8.7,11.3h72.6c3.5,0,6.3-2.8,6.4-6.3C82.9,625.2,89,242,89,242z"/>
		<path class="st4" d="M8.1,673.4c3.7-13.8,16.6-23.1,31.9-23.1"/>
	</g>
	<g class="st1">
		<path class="st2" d="M368,685.5c0-20.7-16.8-37.5-37.5-37.5c-16.6,0-30.7,10.8-35.6,25.8c-1.9,5.8,2.5,11.7,8.6,11.7H368"/>
		<path class="st3" d="M400,242h-51c0,0,21.6,269.5,6.3,399.5c-2.2-0.3-4.5-0.5-6.8-0.5c-20.7,0-38,14.1-43,33.2
			c-1.5,5.7,2.8,11.3,8.7,11.3h72.6c3.5,0,6.3-2.8,6.4-6.3C393.9,625.2,400,242,400,242z"/>
		<path class="st4" d="M319.1,673.4c3.7-13.8,16.6-23.1,31.9-23.1"/>
	</g>
</g>
<g id="body">
	<path class="st5" d="M106.8,1109.2c394.6,0,736-228.5,898.3-560.7C833.2,246,508,41.9,135.3,41.9c-394.6,0-736,228.5-898.3,560.7
		C-591.2,905.1-266,1109.2,106.8,1109.2z"/>
	<g>
		<path class="st3" d="M1086.5-91.2c-52.1-257.4-203.7-478.9-412.4-623.1c-5,280.2-29.3,493-59.1,493c-31.8,0-58.3-249.2-59.9-563.2
			c-42.6-21.5-86.8-39.7-132.6-55c-2.9,263.2-28.5,469.4-59.5,469.4c-32.2,0-58.7-222.7-59.9-501.2c-42.1-8.3-85.5-14-129.8-16.9
			c0.8,39.3,1.7,79.3,1.7,119.8c0,329.8-30.6,597.1-68.2,597.1S38.6-439.1,38.6-768.8c0-40.5,0.4-80.6,1.7-119.8
			c-41.3,2.9-81.8,7.9-121.5,15.7c-3.3,263.6-28.9,469.8-59.9,469.8c-29.8,0-54.5-190.5-59.1-439.7c-40.1,12.8-78.9,28.1-116.5,45.9
			c-2.5,306.2-28.5,546.3-59.5,546.3c-28.9,0-53.3-206.6-58.7-481c-276,178.5-458.3,488.4-458.3,840.9
			c0,179.3,47.1,347.5,130.2,493.4C-600.7,270.4-259.4,41.9,135.3,41.9c372.7,0,697.9,204.1,869.8,506.6
			c64.9-132.6,101.7-281.8,101.7-439.3C1106.8,40.7,1099.7-26.3,1086.5-91.2z"/>
		<path class="st6" d="M-376.7-250.3c31.4,0,57-240.5,59.5-546.3c-40.9,19.4-80.6,41.3-118.6,65.7
			C-430-456.9-405.6-250.3-376.7-250.3z"/>
		<path class="st6" d="M-141.2-403.1c31,0,56.6-206.2,59.5-469.8c-40.5,7.9-80.2,17.8-119,30.2
			C-195.7-593.6-170.9-403.1-141.2-403.1z"/>
		<path class="st6" d="M362.9-370.1c31,0,56.6-206.2,59.5-469.8c-38.8-12.8-78.5-23.6-119.4-31.8
			C304.3-592.8,330.7-370.1,362.9-370.1z"/>
		<path class="st6" d="M615-221.3c29.3,0,54.1-212.8,59.1-493c-37.6-26-77.7-49.6-119-70.2C556.8-470.5,583.2-221.3,615-221.3z"/>
		<path class="st6" d="M106.8-171.7c37.6,0,68.2-267.4,68.2-597.1c0-40.5-0.4-80.6-1.7-119.8c-21.9-1.2-44.2-2.1-66.5-2.1
			s-44.6,0.8-66.5,2.1c-0.8,39.3-1.7,79.3-1.7,119.8C38.6-439.1,69.1-171.7,106.8-171.7z"/>
	</g>
</g>
<g id="tale" class="st0">
	<path class="st7" d="M680.3,459.7c-1-2.6,9.3-8.9,23.7-14.6c-2-11.8-5-24.2-9.5-36.2c-9.6,8.6-18.2,13.3-20.6,10.9
		c-2.7-2.8,3.6-13.9,14.3-25.6c-4.9-9.9-10.9-19.1-18.4-27.1c-5.2,11.1-10.8,18.3-13.9,17.1c-3.6-1.3-2.6-13.3,2-27.8
		c-7.7-5.7-16.7-10.3-26.9-13.3c-4.1,12.9-9.4,21.9-12.8,21c-3.4-0.8-3.9-11-1.7-24.1c-0.5-0.1-1-0.2-1.5-0.2
		c-6.5-0.8-12.7-1.9-18.6-3.4c-5.6,13-12,21.9-15.5,20.7c-3.4-1.2-2.7-11.8,1.2-25c-6.9-2.5-13.4-5.5-19.4-8.8
		c-6.3,8.8-12.8,13.8-16.3,12c-3.7-1.9-3.1-10.9,0.9-21.9c-9.4-7-17.5-15-24.5-23.5c-10.7,9.3-21,14-24.3,10.6
		c-3.6-3.6,2-15.1,12.7-26.6c-26.8-41.7-31.4-87.3-31.4-87.3L454,187c-5,123,96,179,161,187s61,113,61,133s32,20,32,0
		c0-3.6,1-24.7-2.3-50.7C692,460.7,681.2,462.2,680.3,459.7z"/>
	<g class="st1">
		<path class="st6" d="M675.7,479.8c0.6,12.4,0.3,22.3,0.3,27.2c0,20,32,20,32,0c0-2.5,0.8-12.8,0-28L675.7,479.8z"/>
		<path class="st6" d="M498.4,300.7c3.3,3.3,13.6-1.3,24.3-10.6c-4.3-5.2-8.2-10.6-11.7-16C500.5,285.6,494.8,297.1,498.4,300.7z"/>
		<path class="st6" d="M546.3,335.4c3.5,1.8,9.9-3.2,16.3-12c-5.5-3-10.6-6.4-15.4-10C543.2,324.6,542.6,333.5,546.3,335.4z"/>
		<path class="st6" d="M580.9,357.3c3.4,1.2,9.9-7.6,15.5-20.7c-5-1.2-9.7-2.7-14.3-4.3C578.2,345.5,577.6,356.1,580.9,357.3z"/>
		<path class="st6" d="M618.2,364.3c3.4,0.8,8.7-8.1,12.8-21c-4.6-1.3-9.4-2.4-14.5-3C614.2,353.3,614.8,363.5,618.2,364.3z"/>
		<path class="st6" d="M655.9,384.3c3.1,1.1,8.7-6.1,13.9-17.1c-3.6-3.9-7.6-7.4-11.9-10.6C653.3,371,652.3,383,655.9,384.3z"/>
		<path class="st6" d="M674,419.8c2.4,2.5,10.9-2.2,20.6-10.9c-1.8-5-3.9-9.9-6.3-14.7C677.5,405.9,671.2,417,674,419.8z"/>
		<path class="st6" d="M680.3,459.7c0.9,2.5,11.7,0.9,25.4-3.5c-0.5-3.6-1-7.3-1.7-11.1C689.6,450.8,679.3,457.1,680.3,459.7z"/>
	</g>
</g>
<g id="front_legs" class="st0">
	<g class="st1">
		<path class="st2" d="M133,685.5c0-20.7-16.8-37.5-37.5-37.5c-16.6,0-30.7,10.8-35.6,25.8c-1.9,5.8,2.5,11.7,8.6,11.7H133"/>
		<path class="st3" d="M165,242h-51c0,0,21.6,269.5,6.3,399.5c-2.2-0.3-4.5-0.5-6.8-0.5c-20.7,0-38,14.1-43,33.2
			c-1.5,5.7,2.8,11.3,8.7,11.3h72.6c3.5,0,6.3-2.8,6.4-6.3C158.9,625.2,165,242,165,242z"/>
		<path class="st4" d="M84.1,673.4c3.7-13.8,16.6-23.1,31.9-23.1"/>
	</g>
	<g class="st1">
		<path class="st2" d="M444,685.5c0-20.7-16.8-37.5-37.5-37.5c-16.6,0-30.7,10.8-35.6,25.8c-1.9,5.8,2.5,11.7,8.6,11.7H444"/>
		<path class="st3" d="M476,242h-51c0,0,21.6,269.5,6.3,399.5c-2.2-0.3-4.5-0.5-6.8-0.5c-20.7,0-38,14.1-43,33.2
			c-1.5,5.7,2.8,11.3,8.7,11.3h72.6c3.5,0,6.3-2.8,6.4-6.3C469.9,625.2,476,242,476,242z"/>
		<path class="st4" d="M395.1,673.4c3.7-13.8,16.6-23.1,31.9-23.1"/>
	</g>
</g>
<g id="head" class="st0">
	<g id="ears" class="st1">
		<path class="st3" d="M-53.5,141.8c0,0-19.5-15.2-59.5-40.8c-3.9-2.5-9,0.1-9.2,4.7c-1.2,20.3-2.3,68.4,8,116.5L-53.5,141.8z"/>
		<path class="st3" d="M3.4,141.8c0,0,18.6-15.2,58.6-40.8c3.9-2.5,9,0.1,9.2,4.7c1.2,20.3,2.3,68.4-8,116.5L3.4,141.8z"/>
		<path class="st8" d="M-62,161c0,0-13.5-28.9-47.5-50.6c-3.3-2.1-7.6,0.1-7.8,4c-1,17.3-2,58.1,6.8,98.9L-62,161z"/>
		<path class="st8" d="M13,161c0,0,13.5-28.9,47.5-50.6c3.3-2.1,7.6,0.1,7.8,4c1,17.3,2,58.1-6.8,98.9L13,161z"/>
	</g>
	<circle class="st9" cx="-23.5" cy="237" r="103"/>
	<path class="st7" d="M-1,136.5c-0.3,34.7-3.1,61.8-6.5,61.8s-6.2-28.2-6.5-63.9c-1.3-0.1-2.7-0.2-4-0.3c0,37.7-3.4,68.2-7.5,68.2
		s-7.4-30.3-7.5-67.9c-1.4,0.1-2.7,0.3-4,0.5c-0.3,35.5-3.1,63.4-6.5,63.4c-3.3,0-6.1-26.6-6.5-60.9c-44.1,11.7-76.5,51.8-76.5,99.6
		c0,9.7,1.3,19.1,3.9,28l38.5-3.5L-35,253c4-2,17-2,23,0l87.6,12c2.6-9.3,4-19.2,3.8-29.4C78.9,187.3,44.5,146.7-1,136.5z"/>
</g>
<g id="face" class="st0">
	<path class="st10" d="M-41.4,222.7c0,21.7-17.6,39.3-39.3,39.3s-39.3-17.6-39.3-39.3H-41.4z"/>
	<path class="st11" d="M-72.1,222.2c0,19.1-3.8,29.8-8.6,29.8s-8.6-10.7-8.6-29.8"/>
	<path class="st12" d="M-38,278c0,0,10-7,31-3"/>
	<line class="st13" x1="-119" y1="222.5" x2="-41.9" y2="222.5"/>
	<path class="st10" d="M72,222.7c0,21.7-17.6,39.3-39.3,39.3s-39.3-17.6-39.3-39.3H72z"/>
	<path class="st11" d="M41.3,222.2c0,19.1-3.8,29.8-8.6,29.8s-8.6-10.7-8.6-29.8"/>
	<line class="st13" x1="-5.6" y1="222.5" x2="71.5" y2="222.5"/>
	<line class="st12" x1="-23.6" y1="256" x2="-23.6" y2="274"/>
	<path class="st14" d="M-33.5,257L-33.5,257c6.6-1.2,13.3-1.2,19.8,0l0,0c3.5,0,4.8-2.9,1.8-4.1l-8.7-3.4c-1.8-0.7-3.8-0.7-5.6,0
		l-9.1,3.4C-38.3,254-37.1,257-33.5,257z"/>
	<g id="wiskers2" class="st1">
		<line class="st15" x1="-153.5" y1="248.5" x2="-123" y2="252"/>
		<line class="st15" x1="-123" y1="260" x2="-155" y2="266"/>
		<line class="st15" x1="-120.8" y1="271" x2="-150" y2="286"/>
	</g>
	<g id="wiskers_1_" class="st1">
		<line class="st15" x1="102.7" y1="245.5" x2="72.2" y2="249"/>
		<line class="st15" x1="72.2" y1="257" x2="104.2" y2="263"/>
		<line class="st15" x1="70" y1="268" x2="99.2" y2="283"/>
	</g>
	<g class="st1">
		<path class="st6" d="M-25.5,202.3c4.1,0,7.4-30.5,7.5-68.2c-1.4-0.1-2.8-0.1-4.1-0.1c-3.7,0-7.3,0.1-10.9,0.4
			C-32.9,172-29.6,202.3-25.5,202.3z"/>
		<path class="st6" d="M-7.5,198.3c3.4,0,6.1-27.1,6.5-61.8c-4.2-0.9-8.5-1.6-12.9-2C-13.7,170.2-10.9,198.3-7.5,198.3z"/>
		<path class="st6" d="M-43.5,198.3c3.4,0,6.2-27.9,6.5-63.4c-4.4,0.6-8.7,1.4-12.9,2.5C-49.6,171.7-46.8,198.3-43.5,198.3z"/>
	</g>
</g>
</svg>
