<svg id="Layer_1" data-name="Layer 1" xmlns="http://www.w3.org/2000/svg" viewBox="0 0 581.08 303.1"><defs><style>.cls-1{fill:#f2fcfb;}.cls-2{fill:#00ccbe;}.cls-3,.cls-4{fill:#e6f0fc;}.cls-3,.cls-4,.cls-5{stroke:#009ccc;}.cls-3{stroke-miterlimit:10;stroke-width:10px;}.cls-4,.cls-5{stroke-linecap:round;stroke-linejoin:round;stroke-width:5px;}.cls-5{fill:none;}.cls-6{fill:#b9f9e5;}.cls-7{fill:#03eabe;}.cls-8{fill:#ed63fc;}.cls-9{fill:#a932c6;}</style></defs><title>mail</title><path class="cls-1" d="M191.16,430.71a35.13,35.13,0,0,1-32.68-22.57L107.77,274.4a35,35,0,0,1,20.29-45.06L353.19,144a34.91,34.91,0,0,1,45.07,20.29L449,298a34.95,34.95,0,0,1-20.29,45.07L203.54,428.43A34.88,34.88,0,0,1,191.16,430.71Z" transform="translate(12.8 -136.71)"/><path class="cls-2" d="M365.58,136.71v10a30.1,30.1,0,0,1,28,19.34l50.7,133.74A29.93,29.93,0,0,1,426.9,338.4L201.77,423.75a29.8,29.8,0,0,1-10.61,2,30.13,30.13,0,0,1-28-19.34l-50.7-133.74A29.94,29.94,0,0,1,129.84,234L355,148.66a30,30,0,0,1,10.6-1.95v-10m0,0a40,40,0,0,0-14.15,2.6L126.29,224.66a39.95,39.95,0,0,0-23.19,51.51l50.7,133.74a39.89,39.89,0,0,0,51.51,23.19l225.13-85.35a39.94,39.94,0,0,0,23.19-51.51L402.93,162.5a40,40,0,0,0-37.36-25.79Z" transform="translate(12.8 -136.71)"/><path class="cls-2" d="M119.31,253.84a4.29,4.29,0,0,0-2.2,8.29L244.18,296l5-7.54Z" transform="translate(12.8 -136.71)"/><path class="cls-2" d="M383.13,161.27a4.29,4.29,0,1,0-7.14-4.74l-74.31,112,8.74,2.33Z" transform="translate(12.8 -136.71)"/><path class="cls-2" d="M282.57,297.31l-24.64-6.56-5,7.54,30.41,8.09h.05a3.56,3.56,0,0,0,.62.12h0a3.62,3.62,0,0,0,.57,0h.2c.13,0,.27,0,.4-.06l.2,0a5.26,5.26,0,0,0,.53-.15H286a4.59,4.59,0,0,0,.5-.24l.18-.1.33-.22.16-.13a3.79,3.79,0,0,0,.42-.38l0,0a3.14,3.14,0,0,0,.38-.5l0,0,17.4-26.22-8.74-2.33Z" transform="translate(12.8 -136.71)"/><path class="cls-2" d="M437.5,304.68,310.42,270.85l-5,7.54L435.29,313a4.28,4.28,0,1,0,2.21-8.28Z" transform="translate(12.8 -136.71)"/><path class="cls-2" d="M171.47,405.53a4.29,4.29,0,0,0,7.15,4.74l74.31-112L244.18,296Z" transform="translate(12.8 -136.71)"/><polygon class="cls-2" points="314.48 131.81 309.48 139.35 318.22 141.68 323.23 134.14 314.48 131.81"/><polygon class="cls-2" points="261.99 151.71 256.98 159.25 265.73 161.58 270.73 154.04 261.99 151.71"/><path class="cls-3" d="M91,94" transform="translate(12.8 -136.71)"/><path class="cls-4" d="M146.05,380c-8,11-38.85,37.72-38.85,37.72S78,444.38,65.5,435.5C53.33,426.83,67,414.9,67,414.9s-25.53,21-38.51,7.6c-9.76-10.05,12.71-31.28,12.71-31.28s-35.61,34.45-50,13.16c-13-19.15,61.94-76.73,91.94-89.24,21-8.76,46.16-9.9,60.17,4.54h0C160.68,337.58,159.09,362,146.05,380Z" transform="translate(12.8 -136.71)"/><path class="cls-5" d="M114.75,328.88c26.18,13.92-1.73,48-23.25,39.62C72.1,360.92,67,343.46,71,331.14c.85-2.64,5-11.23,12.65-15.45,19.77-11,45.1-11,59.11,3.44h0" transform="translate(12.8 -136.71)"/><path class="cls-4" d="M431.47,280c13.18,3.27,54,3.84,54,3.84s39.57,1.6,43.39-13.22c3.72-14.47-14.43-14.79-14.43-14.79s33-.39,34.36-19c1-14-29.87-15.75-29.87-15.75s49.43,3.43,46.75-22.13c-2.41-23-96.79-18.83-127.8-9.08-21.73,6.83-41.7,22.15-43.12,42.22h0C393,257,409.93,274.65,431.47,280Z" transform="translate(12.8 -136.71)"/><path class="cls-5" d="M422.52,220.74c-11.06,27.51,32.25,35.64,43.3,15.34,10-18.28,2.6-34.91-8.38-41.78-2.35-1.47-11.08-5.35-19.63-3.67-22.18,4.35-41.58,20.64-43,40.7h0" transform="translate(12.8 -136.71)"/><path class="cls-6" d="M81.54,200.25A.55.55,0,0,1,81,200a.37.37,0,0,1-.13-.29l.91-18.37a1.3,1.3,0,0,0-.62-1.25L66.6,168.76a.74.74,0,0,1-.23-.38.76.76,0,0,1,.06-.41c.09-.11.19-.12.28-.23L84.53,163a1.55,1.55,0,0,0,1-.9l6.24-17.39a.55.55,0,0,1,.47-.35c.1,0,.2,0,.21.08s.2.08.31.17l10.06,15.49a1.79,1.79,0,0,0,1.17.69l18.44.51a.56.56,0,0,1,.56.55c0,.1-.08.21-.17.32l-11.46,14.28a1.72,1.72,0,0,0-.28,1.33l5.25,17.68c0,.2,0,.3-.06.4s-.18.22-.28.23h-.1c-.1,0-.2,0-.21-.08l-17.22-6.55a1.43,1.43,0,0,0-.71-.13,1.86,1.86,0,0,0-.68.27L81.92,200C81.74,200.23,81.64,200.24,81.54,200.25Z" transform="translate(12.8 -136.71)"/><path class="cls-7" d="M93.23,145.15h0M92.61,147l9,13.79a3,3,0,0,0,2.44,1.37l16.52.39-10.4,12.87a3,3,0,0,0-.53,2.77L114.29,194l-15.45-5.92a3.2,3.2,0,0,0-1.32-.18,2.77,2.77,0,0,0-1.45.55l-13.56,9.36.9-16.46a3,3,0,0,0-1.15-2.5L69.12,168.81,85,164.45a3,3,0,0,0,2-1.91L92.61,147m-.51-4.17a2,2,0,0,0-1.77,1.38l-6.14,17.38-17.82,4.76a2.72,2.72,0,0,0-1.14.71,2.06,2.06,0,0,0,.39,2.88l14.76,11.21-.91,18.38a2,2,0,0,0,.32,1.27,2.1,2.1,0,0,0,1.9.92,1.92,1.92,0,0,0,1-.39l15.15-10.43L115,197.47a3.28,3.28,0,0,0,.92.12l.4,0A2.05,2.05,0,0,0,117.7,195l-5.24-17.67L124,162.93a2.23,2.23,0,0,0,.48-1.25,2.18,2.18,0,0,0-2-2.11L104,159.06,94,143.57a1.8,1.8,0,0,0-1.08-.8c-.19.12-.5,0-.8.08Z" transform="translate(12.8 -136.71)"/><path class="cls-6" d="M445.69,389.23a.5.5,0,0,1-.35-.38.34.34,0,0,1,0-.28l6.86-14.77a1.16,1.16,0,0,0-.09-1.23l-8.19-14.15a.69.69,0,0,1-.07-.38.7.7,0,0,1,.19-.32c.11-.06.19,0,.3-.09l16.2,2a1.38,1.38,0,0,0,1.14-.4l10.9-12.19a.47.47,0,0,1,.5-.13c.08,0,.17.05.14.13s.14.14.2.25l3.1,16.05a1.61,1.61,0,0,0,.73,1l15,6.55a.49.49,0,0,1,.27.63c0,.09-.13.14-.24.2l-14.16,7.91a1.47,1.47,0,0,0-.66,1l-1.58,16.24c-.05.17-.07.26-.18.32s-.22.12-.31.09l-.08,0c-.09,0-.17-.05-.15-.14L463.17,386a1.31,1.31,0,0,0-.55-.35,1.53,1.53,0,0,0-.64,0l-15.9,3.51A.44.44,0,0,1,445.69,389.23Z" transform="translate(12.8 -136.71)"/><path class="cls-7" d="M473.6,347.92h0m-1.13,1.33,2.79,14.3a2.58,2.58,0,0,0,1.55,1.93l13.41,5.82-12.81,7.1a2.64,2.64,0,0,0-1.35,2.09L474.62,395l-10.7-10a2.73,2.73,0,0,0-1-.58,2.43,2.43,0,0,0-1.37,0l-14.23,3.18,6.21-13.21a2.66,2.66,0,0,0-.11-2.43L446,359.31,460.41,361a2.63,2.63,0,0,0,2.29-.89l9.77-10.86m1-3.59a1.79,1.79,0,0,0-1.91.54l-10.82,12.21-16.2-2a2.37,2.37,0,0,0-1.17.21,1.81,1.81,0,0,0-.64,2.48l8.38,14.11L444.22,388a1.72,1.72,0,0,0-.16,1.15,1.89,1.89,0,0,0,1.25,1.39,1.83,1.83,0,0,0,.93,0l15.9-3.51,11.94,11.1a2.41,2.41,0,0,0,.72.39l.33.1a1.82,1.82,0,0,0,2-1.63l1.57-16.24,14.26-8a1.94,1.94,0,0,0,.81-.86,1.92,1.92,0,0,0-.95-2.41l-15-6.54-3.1-16.06a1.54,1.54,0,0,0-.62-1c-.19,0-.42-.13-.68-.2Z" transform="translate(12.8 -136.71)"/><path class="cls-8" d="M148.55,206.55s-.3,0-.32-.17l-3.85-15.66a1.6,1.6,0,0,0-.91-1L128.39,184c-.11-.09-.21-.08-.23-.28s.08-.21.17-.32l13.58-8.59a1.57,1.57,0,0,0,.7-1.18l.84-16.12c0-.2.28-.23.28-.23s.1,0,.21.08l12.31,10.4a1.61,1.61,0,0,0,1.15.39l.3,0,15.62-4.25a.44.44,0,0,1,.31.07c.11.09,0,.2,0,.3l-6.09,15a1.71,1.71,0,0,0,.13,1.4l8.89,13.55s.11.09,0,.3a.35.35,0,0,1-.19.12l-16.36-1.33-.3,0a1.61,1.61,0,0,0-1.05.61l-10.08,12.49A.1.1,0,0,1,148.55,206.55Z" transform="translate(12.8 -136.71)"/><path class="cls-9" d="M144.87,157.58h0M144.8,160l10.45,8.86a2.94,2.94,0,0,0,2.19.7l.5,0,13.16-3.61-5,12.59a2.84,2.84,0,0,0,.27,2.8l7.48,11.47-13.61-1-.5.05a2.69,2.69,0,0,0-2,1.1l-8.53,10.72-3.32-13.29a3.22,3.22,0,0,0-1.83-2.14l-12.77-4.8,11.6-7.19a2.82,2.82,0,0,0,1.37-2.46L144.8,160m28.75,5.16h0m-30-9.48a1.91,1.91,0,0,0-1.65,1.68l-.74,16.11L127.49,182a1.81,1.81,0,0,0,.31,3.2l15.08,5.68,3.85,15.66a1.75,1.75,0,0,0,2,1.32,2.28,2.28,0,0,0,1.25-.62L160,194.63l16.15,1.15.3,0a1.82,1.82,0,0,0,1.35-2.76l-9-13.34,6.1-15a1.81,1.81,0,0,0-1.86-2.44l-.29,0-15.63,4.25-12.3-10.29a1.58,1.58,0,0,0-1.26-.49Z" transform="translate(12.8 -136.71)"/><path class="cls-8" d="M387.11,409.89s-.2-.2-.07-.33l8.89-11.89a1.44,1.44,0,0,0,.2-1.24l-4.78-14.05c0-.13-.06-.2.07-.33a.48.48,0,0,1,.33-.07l14.05,4.64a1.43,1.43,0,0,0,1.24-.19l12-8.82c.13-.14.32.06.32.06s.07.07.07.2l-.2,14.83a1.52,1.52,0,0,0,.39,1.05l.2.19,12.16,8.63a.4.4,0,0,1,.13.26c0,.13-.13.13-.2.2l-14.25,4.44a1.57,1.57,0,0,0-.91.91l-4.44,14.25s0,.13-.2.2a.32.32,0,0,1-.2-.07l-8.62-12.42-.2-.19a1.48,1.48,0,0,0-1-.39l-14.77.13A.09.09,0,0,1,387.11,409.89Z" transform="translate(12.8 -136.71)"/><path class="cls-9" d="M419.78,378.65h0M418,380l-.2,12.62a2.68,2.68,0,0,0,.78,2l.33.32,10.26,7.26L417.3,406a2.57,2.57,0,0,0-1.83,1.83l-3.79,12-7.26-10.26-.32-.33a2.51,2.51,0,0,0-2-.78l-12.61.2L397,398.52a3,3,0,0,0,.46-2.55l-4.05-11.9,11.89,4.06a2.61,2.61,0,0,0,2.55-.46L418,380m13.13,23.46h0m-10.78-26.85a1.75,1.75,0,0,0-2.16-.2l-11.89,8.89-14.05-4.77a1.66,1.66,0,0,0-2.09,2.09L395,396.69l-8.89,11.89a1.62,1.62,0,0,0,.2,2.16,2.22,2.22,0,0,0,1.17.52l14.84-.2,8.62,12.16.2.19a1.66,1.66,0,0,0,2.74-.65l4.25-14.18,14.25-4.44a1.67,1.67,0,0,0,.65-2.75l-.19-.19-12.16-8.63.13-14.77a1.41,1.41,0,0,0-.39-1.17Z" transform="translate(12.8 -136.71)"/></svg>