<?xml version="1.0" encoding="utf-8"?>
<!-- Generator: Adobe Illustrator 23.0.1, SVG Export Plug-In . SVG Version: 6.00 Build 0)  -->
<svg version="1.1" xmlns="http://www.w3.org/2000/svg" xmlns:xlink="http://www.w3.org/1999/xlink" x="0px" y="0px"
	 viewBox="0 0 895 738" style="enable-background:new 0 0 895 738;" xml:space="preserve">
<style type="text/css">
	.st0{fill:#A37936;}
	.st1{fill:#BC8F40;}
	.st2{fill:none;stroke:#664D21;stroke-width:2;stroke-linecap:round;stroke-miterlimit:10;}
	.st3{fill:#EDD177;}
	.st4{fill:#895203;}
	.st5{fill:#F7D9AD;}
	.st6{fill:#FFF3E1;}
	.st7{fill:#546B2B;}
	.st8{fill:none;stroke:#664D21;stroke-width:3;stroke-linecap:round;stroke-miterlimit:10;}
	.st9{fill:none;stroke:#664D21;stroke-width:7;stroke-linecap:round;stroke-miterlimit:10;}
	.st10{fill:#84512F;}
	.st11{fill:none;stroke:#664D21;stroke-width:4;stroke-linecap:round;stroke-miterlimit:10;}
</style>
<g id="backlegs">
	<g>
		<path class="st0" d="M229,703.5c0-20.7-16.8-37.5-37.5-37.5c-16.6,0-30.7,10.8-35.6,25.8c-1.9,5.8,2.5,11.7,8.6,11.7H229"/>
		<path class="st1" d="M261,260h-51c0,0,21.6,269.5,6.3,399.5c-2.2-0.3-4.5-0.5-6.8-0.5c-20.7,0-38,14.1-43,33.2
			c-1.5,5.7,2.8,11.3,8.7,11.3l72.6,0c3.5,0,6.3-2.8,6.4-6.3C254.9,643.2,261,260,261,260z"/>
		<path class="st2" d="M180.1,691.4c3.7-13.8,16.6-23.1,31.9-23.1"/>
	</g>
	<g>
		<path class="st0" d="M540,703.5c0-20.7-16.8-37.5-37.5-37.5c-16.6,0-30.7,10.8-35.6,25.8c-1.9,5.8,2.5,11.7,8.6,11.7H540"/>
		<path class="st1" d="M572,260h-51c0,0,21.6,269.5,6.3,399.5c-2.2-0.3-4.5-0.5-6.8-0.5c-20.7,0-38,14.1-43,33.2
			c-1.5,5.7,2.8,11.3,8.7,11.3l72.6,0c3.5,0,6.3-2.8,6.4-6.3C565.9,643.2,572,260,572,260z"/>
		<path class="st2" d="M491.1,691.4c3.7-13.8,16.6-23.1,31.9-23.1"/>
	</g>
</g>
<g id="body">
	<path class="st3" d="M417.5,508c95.5,0,178.1-55.3,217.4-135.7c-41.6-73.2-120.3-122.6-210.5-122.6c-95.5,0-178.1,55.3-217.4,135.7
		C248.6,458.6,327.3,508,417.5,508z"/>
	<g>
		<path class="st1" d="M654.6,217.5c-12.7-62.3-49.3-115.9-99.9-150.8c-1.2,67.8-7.1,119.3-14.3,119.3c-7.7,0-14.1-60.3-14.5-136.3
			c-10.3-5.2-21-9.6-32.1-13.3C493.2,100.1,487,150,479.5,150c-7.8,0-14.2-53.9-14.5-121.3c-10.2-2-20.7-3.4-31.4-4.1
			c0.2,9.5,0.4,19.2,0.4,29c0,79.8-7.4,144.5-16.5,144.5S401,133.3,401,53.5c0-9.8,0.1-19.5,0.4-29c-10,0.7-19.8,1.9-29.4,3.8
			C371.2,92.1,365,142,357.5,142c-7.2,0-13.2-46.1-14.3-106.4c-9.7,3.1-19.1,6.8-28.2,11.1c-0.6,74.1-6.9,132.2-14.4,132.2
			c-7,0-12.9-50-14.2-116.4C219.6,105.7,175.5,180.7,175.5,266c0,43.4,11.4,84.1,31.5,119.4c39.4-80.3,121.9-135.7,217.4-135.7
			c90.2,0,168.9,49.4,210.5,122.6c15.7-32.1,24.6-68.2,24.6-106.3C659.5,249.4,657.8,233.2,654.6,217.5z"/>
		<path class="st4" d="M300.5,179c7.6,0,13.8-58.2,14.4-132.2c-9.9,4.7-19.5,10-28.7,15.9C287.6,129,293.5,179,300.5,179z"/>
		<path class="st4" d="M357.5,142c7.5,0,13.7-49.9,14.4-113.7c-9.8,1.9-19.4,4.3-28.8,7.3C344.3,95.9,350.3,142,357.5,142z"/>
		<path class="st4" d="M479.5,150c7.5,0,13.7-49.9,14.4-113.7c-9.4-3.1-19-5.7-28.9-7.7C465.3,96.1,471.7,150,479.5,150z"/>
		<path class="st4" d="M540.5,186c7.1,0,13.1-51.5,14.3-119.3c-9.1-6.3-18.8-12-28.8-17C526.4,125.7,532.8,186,540.5,186z"/>
		<path class="st4" d="M417.5,198c9.1,0,16.5-64.7,16.5-144.5c0-9.8-0.1-19.5-0.4-29c-5.3-0.4-10.7-0.5-16.1-0.5
			c-5.4,0-10.8,0.2-16.1,0.5c-0.2,9.5-0.4,19.2-0.4,29C401,133.3,408.4,198,417.5,198z"/>
	</g>
</g>
<g id="tale">
	<path class="st1" d="M852.3,477.7c-1-2.6,9.3-8.9,23.7-14.6c-2-11.8-5-24.2-9.5-36.2c-9.6,8.6-18.2,13.3-20.6,10.9
		c-2.7-2.8,3.6-13.9,14.3-25.6c-4.9-9.9-10.9-19.1-18.4-27.1c-5.2,11.1-10.8,18.3-13.9,17.1c-3.6-1.3-2.6-13.3,2-27.8
		c-7.7-5.7-16.7-10.3-26.9-13.3c-4.1,12.9-9.4,21.9-12.8,21c-3.4-0.8-3.9-11-1.7-24.1c-0.5-0.1-1-0.2-1.5-0.2
		c-6.5-0.8-12.7-1.9-18.6-3.4c-5.6,13-12,21.9-15.5,20.7c-3.4-1.2-2.7-11.8,1.2-25c-6.9-2.5-13.4-5.5-19.4-8.8
		c-6.3,8.8-12.8,13.8-16.3,12c-3.7-1.9-3.1-10.9,0.9-21.9c-9.4-7-17.5-15-24.5-23.5c-10.7,9.3-21,14-24.3,10.6
		c-3.6-3.6,2-15.1,12.7-26.6c-26.8-41.7-31.4-87.3-31.4-87.3L626,205c-5,123,96,179,161,187s61,113,61,133s32,20,32,0
		c0-3.6,1-24.7-2.3-50.7C864,478.7,853.2,480.2,852.3,477.7z"/>
	<g>
		<path class="st4" d="M847.7,497.8c0.6,12.4,0.3,22.3,0.3,27.2c0,20,32,20,32,0c0-2.5,0.8-12.8,0-28L847.7,497.8z"/>
		<path class="st4" d="M670.4,318.7c3.3,3.3,13.6-1.3,24.3-10.6c-4.3-5.2-8.2-10.6-11.7-16C672.5,303.6,666.8,315.1,670.4,318.7z"/>
		<path class="st4" d="M718.3,353.4c3.5,1.8,9.9-3.2,16.3-12c-5.5-3-10.6-6.4-15.4-10C715.2,342.6,714.6,351.5,718.3,353.4z"/>
		<path class="st4" d="M752.9,375.3c3.4,1.2,9.9-7.6,15.5-20.7c-5-1.2-9.7-2.7-14.3-4.3C750.2,363.5,749.6,374.1,752.9,375.3z"/>
		<path class="st4" d="M790.2,382.3c3.4,0.8,8.7-8.1,12.8-21c-4.6-1.3-9.4-2.4-14.5-3C786.2,371.3,786.8,381.5,790.2,382.3z"/>
		<path class="st4" d="M827.9,402.3c3.1,1.1,8.7-6.1,13.9-17.1c-3.6-3.9-7.6-7.4-11.9-10.6C825.3,389,824.3,401,827.9,402.3z"/>
		<path class="st4" d="M846,437.8c2.4,2.5,10.9-2.2,20.6-10.9c-1.8-5-3.9-9.9-6.3-14.7C849.5,423.9,843.2,435,846,437.8z"/>
		<path class="st4" d="M852.3,477.7c0.9,2.5,11.7,0.9,25.4-3.5c-0.5-3.6-1-7.3-1.7-11.1C861.6,468.8,851.3,475.1,852.3,477.7z"/>
	</g>
</g>
<g id="front_legs">
	<g>
		<path class="st0" d="M305,703.5c0-20.7-16.8-37.5-37.5-37.5c-16.6,0-30.7,10.8-35.6,25.8c-1.9,5.8,2.5,11.7,8.6,11.7H305"/>
		<path class="st1" d="M337,260h-51c0,0,21.6,269.5,6.3,399.5c-2.2-0.3-4.5-0.5-6.8-0.5c-20.7,0-38,14.1-43,33.2
			c-1.5,5.7,2.8,11.3,8.7,11.3l72.6,0c3.5,0,6.3-2.8,6.4-6.3C330.9,643.2,337,260,337,260z"/>
		<path class="st2" d="M256.1,691.4c3.7-13.8,16.6-23.1,31.9-23.1"/>
	</g>
	<g>
		<path class="st0" d="M616,703.5c0-20.7-16.8-37.5-37.5-37.5c-16.6,0-30.7,10.8-35.6,25.8c-1.9,5.8,2.5,11.7,8.6,11.7H616"/>
		<path class="st1" d="M648,260h-51c0,0,21.6,269.5,6.3,399.5c-2.2-0.3-4.5-0.5-6.8-0.5c-20.7,0-38,14.1-43,33.2
			c-1.5,5.7,2.8,11.3,8.7,11.3l72.6,0c3.5,0,6.3-2.8,6.4-6.3C641.9,643.2,648,260,648,260z"/>
		<path class="st2" d="M567.1,691.4c3.7-13.8,16.6-23.1,31.9-23.1"/>
	</g>
</g>
<g id="head">
	<g id="ears">
		<path class="st1" d="M118.5,159.8c0,0-19.5-15.2-59.5-40.8c-3.9-2.5-9,0.1-9.2,4.7c-1.2,20.3-2.3,68.4,8,116.5L118.5,159.8z"/>
		<path class="st1" d="M175.4,159.8c0,0,18.6-15.2,58.6-40.8c3.9-2.5,9,0.1,9.2,4.7c1.2,20.3,2.3,68.4-8,116.5L175.4,159.8z"/>
		<path class="st5" d="M110,179c0,0-13.5-28.9-47.5-50.6c-3.3-2.1-7.6,0.1-7.8,4c-1,17.3-2,58.1,6.8,98.9L110,179z"/>
		<path class="st5" d="M185,179c0,0,13.5-28.9,47.5-50.6c3.3-2.1,7.6,0.1,7.8,4c1,17.3,2,58.1-6.8,98.9L185,179z"/>
	</g>
	<circle class="st3" cx="148.5" cy="255" r="103"/>
	<path class="st1" d="M171,154.5c-0.3,34.7-3.1,61.8-6.5,61.8c-3.4,0-6.2-28.2-6.5-63.9c-1.3-0.1-2.7-0.2-4-0.3
		c0,37.7-3.4,68.2-7.5,68.2c-4.1,0-7.4-30.3-7.5-67.9c-1.4,0.1-2.7,0.3-4,0.5c-0.3,35.5-3.1,63.4-6.5,63.4c-3.3,0-6.1-26.6-6.5-60.9
		C78,167.1,45.5,207.3,45.5,255c0,9.7,1.3,19.1,3.9,28l38.5-3.5L137,271c4-2,17-2,23,0l87.6,12c2.6-9.3,4-19.2,3.8-29.4
		C250.9,205.3,216.5,164.7,171,154.5z"/>
</g>
<g id="face">
	<path class="st6" d="M130.6,240.7c0,21.7-17.6,39.3-39.3,39.3s-39.3-17.6-39.3-39.3H130.6z"/>
	<path class="st7" d="M99.9,240.2c0,19.1-3.8,29.8-8.6,29.8s-8.6-10.7-8.6-29.8"/>
	<path class="st8" d="M134,296c0,0,10-7,31-3"/>
	<line class="st9" x1="53" y1="240.5" x2="130.1" y2="240.5"/>
	<path class="st6" d="M244,240.7c0,21.7-17.6,39.3-39.3,39.3s-39.3-17.6-39.3-39.3H244z"/>
	<path class="st7" d="M213.3,240.2c0,19.1-3.8,29.8-8.6,29.8c-4.7,0-8.6-10.7-8.6-29.8"/>
	<line class="st9" x1="166.4" y1="240.5" x2="243.5" y2="240.5"/>
	<line class="st8" x1="148.4" y1="274" x2="148.4" y2="292"/>
	<path class="st10" d="M138.5,275L138.5,275c6.6-1.2,13.3-1.2,19.8,0h0c3.5,0,4.8-2.9,1.8-4.1l-8.7-3.4c-1.8-0.7-3.8-0.7-5.6,0
		l-9.1,3.4C133.7,272,134.9,275,138.5,275z"/>
	<g id="wiskers2">
		<line class="st11" x1="18.5" y1="266.5" x2="49" y2="270"/>
		<line class="st11" x1="49" y1="278" x2="17" y2="284"/>
		<line class="st11" x1="51.2" y1="289" x2="22" y2="304"/>
	</g>
	<g id="wiskers_1_">
		<line class="st11" x1="274.7" y1="263.5" x2="244.2" y2="267"/>
		<line class="st11" x1="244.2" y1="275" x2="276.2" y2="281"/>
		<line class="st11" x1="242" y1="286" x2="271.2" y2="301"/>
	</g>
	<g>
		<path class="st4" d="M146.5,220.3c4.1,0,7.4-30.5,7.5-68.2c-1.4-0.1-2.8-0.1-4.1-0.1c-3.7,0-7.3,0.1-10.9,0.4
			C139.1,190,142.4,220.3,146.5,220.3z"/>
		<path class="st4" d="M164.5,216.3c3.4,0,6.1-27.1,6.5-61.8c-4.2-0.9-8.5-1.6-12.9-2C158.3,188.2,161.1,216.3,164.5,216.3z"/>
		<path class="st4" d="M128.5,216.3c3.4,0,6.2-27.9,6.5-63.4c-4.4,0.6-8.7,1.4-12.9,2.5C122.4,189.7,125.2,216.3,128.5,216.3z"/>
	</g>
</g>
</svg>
