<?xml version="1.0" encoding="utf-8"?>
<!-- Generator: Adobe Illustrator 23.0.1, SVG Export Plug-In . SVG Version: 6.00 Build 0)  -->
<svg version="1.1" xmlns="http://www.w3.org/2000/svg" xmlns:xlink="http://www.w3.org/1999/xlink" x="0px" y="0px"
	 viewBox="0 0 274 252" style="enable-background:new 0 0 274 252;" xml:space="preserve">
<style type="text/css">
	.st0{display:none;}
	.st1{display:inline;}
	.st2{fill:#A37936;}
	.st3{fill:#BC8F40;}
	.st4{fill:none;stroke:#664D21;stroke-width:2;stroke-linecap:round;stroke-miterlimit:10;}
	.st5{display:inline;fill:#EDD177;}
	.st6{fill:#895203;}
	.st7{display:inline;fill:#895203;}
	.st8{fill:#F7D9AD;}
	.st9{fill:#EDD177;}
	.st10{fill:#FFF3E1;}
	.st11{fill:#546B2B;}
	.st12{fill:none;stroke:#664D21;stroke-width:3;stroke-linecap:round;stroke-miterlimit:10;}
	.st13{fill:none;stroke:#664D21;stroke-width:7;stroke-linecap:round;stroke-miterlimit:10;}
	.st14{fill:#84512F;}
	.st15{fill:none;stroke:#664D21;stroke-width:4;stroke-linecap:round;stroke-miterlimit:10;}
</style>
<g id="backlegs" class="st0">
	<g class="st1">
		<path class="st2" d="M220,591.5c0-20.7-16.8-37.5-37.5-37.5c-16.6,0-30.7,10.8-35.6,25.8c-1.9,5.8,2.5,11.7,8.6,11.7H220"/>
		<path class="st3" d="M252,148h-51c0,0,21.6,269.5,6.3,399.5c-2.2-0.3-4.5-0.5-6.8-0.5c-20.7,0-38,14.1-43,33.2
			c-1.5,5.7,2.8,11.3,8.7,11.3l72.6,0c3.5,0,6.3-2.8,6.4-6.3C245.9,531.2,252,148,252,148z"/>
		<path class="st4" d="M171.1,579.4c3.7-13.8,16.6-23.1,31.9-23.1"/>
	</g>
	<g class="st1">
		<path class="st2" d="M531,591.5c0-20.7-16.8-37.5-37.5-37.5c-16.6,0-30.7,10.8-35.6,25.8c-1.9,5.8,2.5,11.7,8.6,11.7H531"/>
		<path class="st3" d="M563,148h-51c0,0,21.6,269.5,6.3,399.5c-2.2-0.3-4.5-0.5-6.8-0.5c-20.7,0-38,14.1-43,33.2
			c-1.5,5.7,2.8,11.3,8.7,11.3l72.6,0c3.5,0,6.3-2.8,6.4-6.3C556.9,531.2,563,148,563,148z"/>
		<path class="st4" d="M482.1,579.4c3.7-13.8,16.6-23.1,31.9-23.1"/>
	</g>
</g>
<g id="body" class="st0">
	<path class="st5" d="M408.5,396c95.5,0,178.1-55.3,217.4-135.7c-41.6-73.2-120.3-122.6-210.5-122.6c-95.5,0-178.1,55.3-217.4,135.7
		C239.6,346.6,318.3,396,408.5,396z"/>
	<g class="st1">
		<path class="st3" d="M645.6,105.5C633,43.2,596.3-10.4,545.8-45.3C544.6,22.5,538.6,74,531.5,74c-7.7,0-14.1-60.3-14.5-136.3
			c-10.3-5.2-21-9.6-32.1-13.3C484.2-11.9,478,38,470.5,38c-7.8,0-14.2-53.9-14.5-121.3c-10.2-2-20.7-3.4-31.4-4.1
			c0.2,9.5,0.4,19.2,0.4,29C425,21.3,417.6,86,408.5,86S392,21.3,392-58.5c0-9.8,0.1-19.5,0.4-29c-10,0.7-19.8,1.9-29.4,3.8
			C362.2-19.9,356,30,348.5,30c-7.2,0-13.2-46.1-14.3-106.4c-9.7,3.1-19.1,6.8-28.2,11.1C305.3,8.8,299.1,67,291.5,67
			c-7,0-12.9-50-14.2-116.4C210.6-6.3,166.5,68.7,166.5,154c0,43.4,11.4,84.1,31.5,119.4c39.4-80.3,121.9-135.7,217.4-135.7
			c90.2,0,168.9,49.4,210.5,122.6c15.7-32.1,24.6-68.2,24.6-106.3C650.5,137.4,648.8,121.2,645.6,105.5z"/>
		<path class="st6" d="M291.5,67c7.6,0,13.8-58.2,14.4-132.2c-9.9,4.7-19.5,10-28.7,15.9C278.6,17,284.5,67,291.5,67z"/>
		<path class="st6" d="M348.5,30c7.5,0,13.7-49.9,14.4-113.7c-9.8,1.9-19.4,4.3-28.8,7.3C335.3-16.1,341.3,30,348.5,30z"/>
		<path class="st6" d="M470.5,38c7.5,0,13.7-49.9,14.4-113.7c-9.4-3.1-19-5.7-28.9-7.7C456.3-15.9,462.7,38,470.5,38z"/>
		<path class="st6" d="M531.5,74c7.1,0,13.1-51.5,14.3-119.3c-9.1-6.3-18.8-12-28.8-17C517.4,13.7,523.8,74,531.5,74z"/>
		<path class="st6" d="M408.5,86c9.1,0,16.5-64.7,16.5-144.5c0-9.8-0.1-19.5-0.4-29c-5.3-0.4-10.7-0.5-16.1-0.5
			c-5.4,0-10.8,0.2-16.1,0.5c-0.2,9.5-0.4,19.2-0.4,29C392,21.3,399.4,86,408.5,86z"/>
	</g>
</g>
<g id="tale" class="st0">
	<path class="st3" d="M843.3,365.7c-1-2.6,9.3-8.9,23.7-14.6c-2-11.8-5-24.2-9.5-36.2c-9.6,8.6-18.2,13.3-20.6,10.9
		c-2.7-2.8,3.6-13.9,14.3-25.6c-4.9-9.9-10.9-19.1-18.4-27.1c-5.2,11.1-10.8,18.3-13.9,17.1c-3.6-1.3-2.6-13.3,2-27.8
		c-7.7-5.7-16.7-10.3-26.9-13.3c-4.1,12.9-9.4,21.9-12.8,21c-3.4-0.8-3.9-11-1.7-24.1c-0.5-0.1-1-0.2-1.5-0.2
		c-6.5-0.8-12.7-1.9-18.6-3.4c-5.6,13-12,21.9-15.5,20.7c-3.4-1.2-2.7-11.8,1.2-25c-6.9-2.5-13.4-5.5-19.4-8.8
		c-6.3,8.8-12.8,13.8-16.3,12c-3.7-1.9-3.1-10.9,0.9-21.9c-9.4-7-17.5-15-24.5-23.5c-10.7,9.3-21,14-24.3,10.6
		c-3.6-3.6,2-15.1,12.7-26.6c-26.8-41.7-31.4-87.3-31.4-87.3L617,93c-5,123,96,179,161,187s61,113,61,133s32,20,32,0
		c0-3.6,1-24.7-2.3-50.7C855,366.7,844.2,368.2,843.3,365.7z"/>
	<g>
		<path class="st7" d="M838.7,385.8c0.6,12.4,0.3,22.3,0.3,27.2c0,20,32,20,32,0c0-2.5,0.8-12.8,0-28L838.7,385.8z"/>
		<path class="st7" d="M661.4,206.7c3.3,3.3,13.6-1.3,24.3-10.6c-4.3-5.2-8.2-10.6-11.7-16C663.5,191.6,657.8,203.1,661.4,206.7z"/>
		<path class="st7" d="M709.3,241.4c3.5,1.8,9.9-3.2,16.3-12c-5.5-3-10.6-6.4-15.4-10C706.2,230.6,705.6,239.5,709.3,241.4z"/>
		<path class="st7" d="M743.9,263.3c3.4,1.2,9.9-7.6,15.5-20.7c-5-1.2-9.7-2.7-14.3-4.3C741.2,251.5,740.6,262.1,743.9,263.3z"/>
		<path class="st7" d="M781.2,270.3c3.4,0.8,8.7-8.1,12.8-21c-4.6-1.3-9.4-2.4-14.5-3C777.2,259.3,777.8,269.5,781.2,270.3z"/>
		<path class="st7" d="M818.9,290.3c3.1,1.1,8.7-6.1,13.9-17.1c-3.6-3.9-7.6-7.4-11.9-10.6C816.3,277,815.3,289,818.9,290.3z"/>
		<path class="st7" d="M837,325.8c2.4,2.5,10.9-2.2,20.6-10.9c-1.8-5-3.9-9.9-6.3-14.7C840.5,311.9,834.2,323,837,325.8z"/>
		<path class="st7" d="M843.3,365.7c0.9,2.5,11.7,0.9,25.4-3.5c-0.5-3.6-1-7.3-1.7-11.1C852.6,356.8,842.3,363.1,843.3,365.7z"/>
	</g>
</g>
<g id="front_legs" class="st0">
	<g class="st1">
		<path class="st2" d="M296,591.5c0-20.7-16.8-37.5-37.5-37.5c-16.6,0-30.7,10.8-35.6,25.8c-1.9,5.8,2.5,11.7,8.6,11.7H296"/>
		<path class="st3" d="M328,148h-51c0,0,21.6,269.5,6.3,399.5c-2.2-0.3-4.5-0.5-6.8-0.5c-20.7,0-38,14.1-43,33.2
			c-1.5,5.7,2.8,11.3,8.7,11.3l72.6,0c3.5,0,6.3-2.8,6.4-6.3C321.9,531.2,328,148,328,148z"/>
		<path class="st4" d="M247.1,579.4c3.7-13.8,16.6-23.1,31.9-23.1"/>
	</g>
	<g class="st1">
		<path class="st2" d="M607,591.5c0-20.7-16.8-37.5-37.5-37.5c-16.6,0-30.7,10.8-35.6,25.8c-1.9,5.8,2.5,11.7,8.6,11.7H607"/>
		<path class="st3" d="M639,148h-51c0,0,21.6,269.5,6.3,399.5c-2.2-0.3-4.5-0.5-6.8-0.5c-20.7,0-38,14.1-43,33.2
			c-1.5,5.7,2.8,11.3,8.7,11.3l72.6,0c3.5,0,6.3-2.8,6.4-6.3C632.9,531.2,639,148,639,148z"/>
		<path class="st4" d="M558.1,579.4c3.7-13.8,16.6-23.1,31.9-23.1"/>
	</g>
</g>
<g id="head">
	<g id="ears">
		<path class="st3" d="M109.5,47.8c0,0-19.5-15.2-59.5-40.8c-3.9-2.5-9,0.1-9.2,4.7c-1.2,20.3-2.3,68.4,8,116.5L109.5,47.8z"/>
		<path class="st3" d="M166.4,47.8c0,0,18.6-15.2,58.6-40.8c3.9-2.5,9,0.1,9.2,4.7c1.2,20.3,2.3,68.4-8,116.5L166.4,47.8z"/>
		<path class="st8" d="M101,67c0,0-13.5-28.9-47.5-50.6c-3.3-2.1-7.6,0.1-7.8,4c-1,17.3-2,58.1,6.8,98.9L101,67z"/>
		<path class="st8" d="M176,67c0,0,13.5-28.9,47.5-50.6c3.3-2.1,7.6,0.1,7.8,4c1,17.3,2,58.1-6.8,98.9L176,67z"/>
	</g>
	<circle class="st9" cx="139.5" cy="143" r="103"/>
	<path class="st3" d="M162,42.5c-0.3,34.7-3.1,61.8-6.5,61.8c-3.4,0-6.2-28.2-6.5-63.9c-1.3-0.1-2.7-0.2-4-0.3
		c0,37.7-3.4,68.2-7.5,68.2c-4.1,0-7.4-30.3-7.5-67.9c-1.4,0.1-2.7,0.3-4,0.5c-0.3,35.5-3.1,63.4-6.5,63.4c-3.3,0-6.1-26.6-6.5-60.9
		C69,55.1,36.5,95.3,36.5,143c0,9.7,1.3,19.1,3.9,28l38.5-3.5L128,159c4-2,17-2,23,0l87.6,12c2.6-9.3,4-19.2,3.8-29.4
		C241.9,93.3,207.5,52.7,162,42.5z"/>
</g>
<g id="face">
	<path class="st10" d="M121.6,128.7c0,21.7-17.6,39.3-39.3,39.3s-39.3-17.6-39.3-39.3H121.6z"/>
	<path class="st11" d="M90.9,128.2c0,19.1-3.8,29.8-8.6,29.8s-8.6-10.7-8.6-29.8"/>
	<path class="st12" d="M125,184c0,0,10-7,31-3"/>
	<line class="st13" x1="44" y1="128.5" x2="121.1" y2="128.5"/>
	<path class="st10" d="M235,128.7c0,21.7-17.6,39.3-39.3,39.3s-39.3-17.6-39.3-39.3H235z"/>
	<path class="st11" d="M204.3,128.2c0,19.1-3.8,29.8-8.6,29.8c-4.7,0-8.6-10.7-8.6-29.8"/>
	<line class="st13" x1="157.4" y1="128.5" x2="234.5" y2="128.5"/>
	<line class="st12" x1="139.4" y1="162" x2="139.4" y2="180"/>
	<path class="st14" d="M129.5,163L129.5,163c6.6-1.2,13.3-1.2,19.8,0h0c3.5,0,4.8-2.9,1.8-4.1l-8.7-3.4c-1.8-0.7-3.8-0.7-5.6,0
		l-9.1,3.4C124.7,160,125.9,163,129.5,163z"/>
	<g id="wiskers2">
		<line class="st15" x1="9.5" y1="154.5" x2="40" y2="158"/>
		<line class="st15" x1="40" y1="166" x2="8" y2="172"/>
		<line class="st15" x1="42.2" y1="177" x2="13" y2="192"/>
	</g>
	<g id="wiskers_1_">
		<line class="st15" x1="265.7" y1="151.5" x2="235.2" y2="155"/>
		<line class="st15" x1="235.2" y1="163" x2="267.2" y2="169"/>
		<line class="st15" x1="233" y1="174" x2="262.2" y2="189"/>
	</g>
	<g>
		<path class="st6" d="M137.5,108.3c4.1,0,7.4-30.5,7.5-68.2c-1.4-0.1-2.8-0.1-4.1-0.1c-3.7,0-7.3,0.1-10.9,0.4
			C130.1,78,133.4,108.3,137.5,108.3z"/>
		<path class="st6" d="M155.5,104.3c3.4,0,6.1-27.1,6.5-61.8c-4.2-0.9-8.5-1.6-12.9-2C149.3,76.2,152.1,104.3,155.5,104.3z"/>
		<path class="st6" d="M119.5,104.3c3.4,0,6.2-27.9,6.5-63.4c-4.4,0.6-8.7,1.4-12.9,2.5C113.4,77.7,116.2,104.3,119.5,104.3z"/>
	</g>
</g>
</svg>
