<?xml version="1.0" encoding="utf-8"?>
<!-- Generator: Adobe Illustrator 23.0.1, SVG Export Plug-In . SVG Version: 6.00 Build 0)  -->
<svg version="1.1" xmlns="http://www.w3.org/2000/svg" xmlns:xlink="http://www.w3.org/1999/xlink" x="0px" y="0px"
	 viewBox="0 0 275 350" style="enable-background:new 0 0 275 350;" xml:space="preserve">
<style type="text/css">
	.st0{display:none;}
	.st1{display:inline;}
	.st2{fill:#A37936;}
	.st3{fill:#BC8F40;}
	.st4{fill:none;stroke:#664D21;stroke-width:2;stroke-linecap:round;stroke-miterlimit:10;}
	.st5{display:inline;fill:#EDD177;}
	.st6{fill:#895203;}
	.st7{fill:#F7D9AD;}
	.st8{display:inline;fill:#BC8F40;}
	.st9{display:inline;fill:#FFF3E1;}
	.st10{display:inline;fill:#546B2B;}
	.st11{display:inline;fill:none;stroke:#664D21;stroke-width:3;stroke-linecap:round;stroke-miterlimit:10;}
	.st12{display:inline;fill:none;stroke:#664D21;stroke-width:7;stroke-linecap:round;stroke-miterlimit:10;}
	.st13{display:inline;fill:#84512F;}
	.st14{fill:none;stroke:#664D21;stroke-width:4;stroke-linecap:round;stroke-miterlimit:10;}
</style>
<g id="backlegs" class="st0">
	<g class="st1">
		<path class="st2" d="M-30,589.5c0-20.7-16.8-37.5-37.5-37.5c-16.6,0-30.7,10.8-35.6,25.8c-1.9,5.8,2.5,11.7,8.6,11.7H-30"/>
		<path class="st3" d="M2,146h-51c0,0,21.6,269.5,6.3,399.5c-2.2-0.3-4.5-0.5-6.8-0.5c-20.7,0-38,14.1-43,33.2
			c-1.5,5.7,2.8,11.3,8.7,11.3l72.6,0c3.5,0,6.3-2.8,6.4-6.3C-4.1,529.2,2,146,2,146z"/>
		<path class="st4" d="M-78.9,577.4c3.7-13.8,16.6-23.1,31.9-23.1"/>
	</g>
	<g class="st1">
		<path class="st2" d="M281,589.5c0-20.7-16.8-37.5-37.5-37.5c-16.6,0-30.7,10.8-35.6,25.8c-1.9,5.8,2.5,11.7,8.6,11.7H281"/>
		<path class="st3" d="M313,146h-51c0,0,21.6,269.5,6.3,399.5c-2.2-0.3-4.5-0.5-6.8-0.5c-20.7,0-38,14.1-43,33.2
			c-1.5,5.7,2.8,11.3,8.7,11.3l72.6,0c3.5,0,6.3-2.8,6.4-6.3C306.9,529.2,313,146,313,146z"/>
		<path class="st4" d="M232.1,577.4c3.7-13.8,16.6-23.1,31.9-23.1"/>
	</g>
</g>
<g id="body" class="st0">
	<path class="st5" d="M158.5,394c95.5,0,178.1-55.3,217.4-135.7c-41.6-73.2-120.3-122.6-210.5-122.6C69.9,135.7-12.7,191-52,271.4
		C-10.4,344.6,68.3,394,158.5,394z"/>
	<g class="st1">
		<path class="st3" d="M395.6,103.5C383,41.2,346.3-12.4,295.8-47.3C294.6,20.5,288.6,72,281.5,72c-7.7,0-14.1-60.3-14.5-136.3
			c-10.3-5.2-21-9.6-32.1-13.3C234.2-13.9,228,36,220.5,36c-7.8,0-14.2-53.9-14.5-121.3c-10.2-2-20.7-3.4-31.4-4.1
			c0.2,9.5,0.4,19.2,0.4,29C175,19.3,167.6,84,158.5,84S142,19.3,142-60.5c0-9.8,0.1-19.5,0.4-29c-10,0.7-19.8,1.9-29.4,3.8
			C112.2-21.9,106,28,98.5,28c-7.2,0-13.2-46.1-14.3-106.4c-9.7,3.1-19.1,6.8-28.2,11.1C55.3,6.8,49.1,65,41.5,65
			c-7,0-12.9-50-14.2-116.4C-39.4-8.3-83.5,66.7-83.5,152c0,43.4,11.4,84.1,31.5,119.4C-12.7,191,69.9,135.7,165.4,135.7
			c90.2,0,168.9,49.4,210.5,122.6c15.7-32.1,24.6-68.2,24.6-106.3C400.5,135.4,398.8,119.2,395.6,103.5z"/>
		<path class="st6" d="M41.5,65c7.6,0,13.8-58.2,14.4-132.2c-9.9,4.7-19.5,10-28.7,15.9C28.6,15,34.5,65,41.5,65z"/>
		<path class="st6" d="M98.5,28c7.5,0,13.7-49.9,14.4-113.7c-9.8,1.9-19.4,4.3-28.8,7.3C85.3-18.1,91.3,28,98.5,28z"/>
		<path class="st6" d="M220.5,36c7.5,0,13.7-49.9,14.4-113.7c-9.4-3.1-19-5.7-28.9-7.7C206.3-17.9,212.7,36,220.5,36z"/>
		<path class="st6" d="M281.5,72c7.1,0,13.1-51.5,14.3-119.3c-9.1-6.3-18.8-12-28.8-17C267.4,11.7,273.8,72,281.5,72z"/>
		<path class="st6" d="M158.5,84c9.1,0,16.5-64.7,16.5-144.5c0-9.8-0.1-19.5-0.4-29c-5.3-0.4-10.7-0.5-16.1-0.5
			c-5.4,0-10.8,0.2-16.1,0.5c-0.2,9.5-0.4,19.2-0.4,29C142,19.3,149.4,84,158.5,84z"/>
	</g>
</g>
<g id="tale">
	<path class="st3" d="M237.3,278c-1-2.6,9.3-8.9,23.7-14.6c-2-11.8-5-24.2-9.5-36.2c-9.6,8.6-18.2,13.3-20.6,10.9
		c-2.7-2.8,3.6-13.9,14.3-25.6c-4.9-9.9-10.9-19.1-18.4-27.1c-5.2,11.1-10.8,18.3-13.9,17.1c-3.6-1.3-2.6-13.3,2-27.8
		c-7.7-5.7-16.7-10.3-26.9-13.3c-4.1,12.9-9.4,21.9-12.8,21c-3.4-0.8-3.9-11-1.7-24.1c-0.5-0.1-1-0.2-1.5-0.2
		c-6.5-0.8-12.7-1.9-18.6-3.4c-5.6,13-12,21.9-15.5,20.7c-3.4-1.2-2.7-11.8,1.2-25c-6.9-2.5-13.4-5.5-19.4-8.8
		c-6.3,8.8-12.8,13.8-16.3,12c-3.7-1.9-3.1-10.9,0.9-21.9c-9.4-7-17.5-15-24.5-23.5c-10.7,9.3-21,14-24.3,10.6
		c-3.6-3.6,2-15.1,12.7-26.6C41.3,50.7,36.7,5,36.7,5L11,5.3c-5,123,96,179,161,187s61,113,61,133s32,20,32,0c0-3.6,1-24.7-2.3-50.7
		C249,279,238.2,280.6,237.3,278z"/>
	<g>
		<path class="st6" d="M232.7,298.1c0.6,12.4,0.3,22.3,0.3,27.2c0,20,32,20,32,0c0-2.5,0.8-12.8,0-28L232.7,298.1z"/>
		<path class="st6" d="M55.4,119c3.3,3.3,13.6-1.3,24.3-10.6c-4.3-5.2-8.2-10.6-11.7-16C57.5,103.9,51.8,115.4,55.4,119z"/>
		<path class="st6" d="M103.3,153.8c3.5,1.8,9.9-3.2,16.3-12c-5.5-3-10.6-6.4-15.4-10C100.2,142.9,99.6,151.8,103.3,153.8z"/>
		<path class="st6" d="M137.9,175.6c3.4,1.2,9.9-7.6,15.5-20.7c-5-1.2-9.7-2.7-14.3-4.3C135.2,163.8,134.6,174.4,137.9,175.6z"/>
		<path class="st6" d="M175.2,182.6c3.4,0.8,8.7-8.1,12.8-21c-4.6-1.3-9.4-2.4-14.5-3C171.2,171.6,171.8,181.8,175.2,182.6z"/>
		<path class="st6" d="M212.9,202.6c3.1,1.1,8.7-6.1,13.9-17.1c-3.6-3.9-7.6-7.4-11.9-10.6C210.3,189.3,209.3,201.3,212.9,202.6z"/>
		<path class="st6" d="M231,238.2c2.4,2.5,10.9-2.2,20.6-10.9c-1.8-5-3.9-9.9-6.3-14.7C234.5,224.2,228.2,235.3,231,238.2z"/>
		<path class="st6" d="M237.3,278c0.9,2.5,11.7,0.9,25.4-3.5c-0.5-3.6-1-7.3-1.7-11.1C246.6,269.2,236.3,275.4,237.3,278z"/>
	</g>
</g>
<g id="front_legs" class="st0">
	<g class="st1">
		<path class="st2" d="M46,589.5C46,568.8,29.2,552,8.5,552c-16.6,0-30.7,10.8-35.6,25.8c-1.9,5.8,2.5,11.7,8.6,11.7H46"/>
		<path class="st3" d="M78,146H27c0,0,21.6,269.5,6.3,399.5c-2.2-0.3-4.5-0.5-6.8-0.5c-20.7,0-38,14.1-43,33.2
			c-1.5,5.7,2.8,11.3,8.7,11.3l72.6,0c3.5,0,6.3-2.8,6.4-6.3C71.9,529.2,78,146,78,146z"/>
		<path class="st4" d="M-2.9,577.4c3.7-13.8,16.6-23.1,31.9-23.1"/>
	</g>
	<g class="st1">
		<path class="st2" d="M357,589.5c0-20.7-16.8-37.5-37.5-37.5c-16.6,0-30.7,10.8-35.6,25.8c-1.9,5.8,2.5,11.7,8.6,11.7H357"/>
		<path class="st3" d="M389,146h-51c0,0,21.6,269.5,6.3,399.5c-2.2-0.3-4.5-0.5-6.8-0.5c-20.7,0-38,14.1-43,33.2
			c-1.5,5.7,2.8,11.3,8.7,11.3l72.6,0c3.5,0,6.3-2.8,6.4-6.3C382.9,529.2,389,146,389,146z"/>
		<path class="st4" d="M308.1,577.4c3.7-13.8,16.6-23.1,31.9-23.1"/>
	</g>
</g>
<g id="head" class="st0">
	<g id="ears" class="st1">
		<path class="st3" d="M-140.5,45.8c0,0-19.5-15.2-59.5-40.8c-3.9-2.5-9,0.1-9.2,4.7c-1.2,20.3-2.3,68.4,8,116.5L-140.5,45.8z"/>
		<path class="st3" d="M-83.6,45.8c0,0,18.6-15.2,58.6-40.8c3.9-2.5,9,0.1,9.2,4.7c1.2,20.3,2.3,68.4-8,116.5L-83.6,45.8z"/>
		<path class="st7" d="M-149,65c0,0-13.5-28.9-47.5-50.6c-3.3-2.1-7.6,0.1-7.8,4c-1,17.3-2,58.1,6.8,98.9L-149,65z"/>
		<path class="st7" d="M-74,65c0,0,13.5-28.9,47.5-50.6c3.3-2.1,7.6,0.1,7.8,4c1,17.3,2,58.1-6.8,98.9L-74,65z"/>
	</g>
	<circle class="st5" cx="-110.5" cy="141" r="103"/>
	<path class="st8" d="M-88,40.5c-0.3,34.7-3.1,61.8-6.5,61.8c-3.4,0-6.2-28.2-6.5-63.9c-1.3-0.1-2.7-0.2-4-0.3
		c0,37.7-3.4,68.2-7.5,68.2c-4.1,0-7.4-30.3-7.5-67.9c-1.4,0.1-2.7,0.3-4,0.5c-0.3,35.5-3.1,63.4-6.5,63.4c-3.3,0-6.1-26.6-6.5-60.9
		c-44.1,11.7-76.5,51.8-76.5,99.6c0,9.7,1.3,19.1,3.9,28l38.5-3.5l49.1-8.5c4-2,17-2,23,0l87.6,12c2.6-9.3,4-19.2,3.8-29.4
		C-8.1,91.3-42.5,50.7-88,40.5z"/>
</g>
<g id="face" class="st0">
	<path class="st9" d="M-128.4,126.7c0,21.7-17.6,39.3-39.3,39.3s-39.3-17.6-39.3-39.3H-128.4z"/>
	<path class="st10" d="M-159.1,126.2c0,19.1-3.8,29.8-8.6,29.8c-4.7,0-8.6-10.7-8.6-29.8"/>
	<path class="st11" d="M-125,182c0,0,10-7,31-3"/>
	<line class="st12" x1="-206" y1="126.5" x2="-128.9" y2="126.5"/>
	<path class="st9" d="M-15,126.7c0,21.7-17.6,39.3-39.3,39.3s-39.3-17.6-39.3-39.3H-15z"/>
	<path class="st10" d="M-45.7,126.2c0,19.1-3.8,29.8-8.6,29.8s-8.6-10.7-8.6-29.8"/>
	<line class="st12" x1="-92.6" y1="126.5" x2="-15.5" y2="126.5"/>
	<line class="st11" x1="-110.6" y1="160" x2="-110.6" y2="178"/>
	<path class="st13" d="M-120.5,161L-120.5,161c6.6-1.2,13.3-1.2,19.8,0h0c3.5,0,4.8-2.9,1.8-4.1l-8.7-3.4c-1.8-0.7-3.8-0.7-5.6,0
		l-9.1,3.4C-125.3,158-124.1,161-120.5,161z"/>
	<g id="wiskers2" class="st1">
		<line class="st14" x1="-240.5" y1="152.5" x2="-210" y2="156"/>
		<line class="st14" x1="-210" y1="164" x2="-242" y2="170"/>
		<line class="st14" x1="-207.8" y1="175" x2="-237" y2="190"/>
	</g>
	<g id="wiskers_1_" class="st1">
		<line class="st14" x1="15.7" y1="149.5" x2="-14.8" y2="153"/>
		<line class="st14" x1="-14.8" y1="161" x2="17.2" y2="167"/>
		<line class="st14" x1="-17" y1="172" x2="12.2" y2="187"/>
	</g>
	<g class="st1">
		<path class="st6" d="M-112.5,106.3c4.1,0,7.4-30.5,7.5-68.2c-1.4-0.1-2.8-0.1-4.1-0.1c-3.7,0-7.3,0.1-10.9,0.4
			C-119.9,76-116.6,106.3-112.5,106.3z"/>
		<path class="st6" d="M-94.5,102.3c3.4,0,6.1-27.1,6.5-61.8c-4.2-0.9-8.5-1.6-12.9-2C-100.7,74.2-97.9,102.3-94.5,102.3z"/>
		<path class="st6" d="M-130.5,102.3c3.4,0,6.2-27.9,6.5-63.4c-4.4,0.6-8.7,1.4-12.9,2.5C-136.6,75.7-133.8,102.3-130.5,102.3z"/>
	</g>
</g>
</svg>
