<svg id="Layer_1" data-name="Layer 1" xmlns="http://www.w3.org/2000/svg" viewBox="0 0 620 620"><defs><style>.cls-1{fill:#9e2285;}.cls-2{fill:#f9c021;}.cls-3{fill:#301b1b;}.cls-4{fill:#bf3611;}.cls-5{fill:#cc2e15;}.cls-6{fill:#efd3a0;}.cls-7{fill:#f2411d;}.cls-8{fill:#f9e1af;}.cls-9{fill:#edbb7e;}.cls-10{fill:#f9cc9b;}.cls-11{fill:#f9a48a;}.cls-12,.cls-16,.cls-19,.cls-21,.cls-22,.cls-23{fill:none;}.cls-13{fill:#4f3c29;}.cls-14{fill:#190d01;}.cls-15{fill:#fffccc;}.cls-16{stroke:#fc8754;}.cls-16,.cls-19,.cls-21,.cls-22,.cls-23{stroke-linecap:round;}.cls-16,.cls-21,.cls-22,.cls-23{stroke-miterlimit:10;}.cls-16,.cls-22{stroke-width:6px;}.cls-17{opacity:0.2;}.cls-18{fill:#f0f7fc;}.cls-19{stroke:#000;stroke-linejoin:round;stroke-width:4px;}.cls-20{fill:#f7c23c;}.cls-21,.cls-22{stroke:#f2411d;}.cls-21{stroke-width:12px;}.cls-23{stroke:#f9c021;stroke-width:9px;}</style></defs><title>profile</title><path class="cls-1" d="M285.67,567.5A300.48,300.48,0,0,1-14.83,267a300.5,300.5,0,0,1,513-212.49,300.5,300.5,0,0,1,0,425A298.54,298.54,0,0,1,285.67,567.5Z" transform="translate(24.33 43)"/><path class="cls-2" d="M285.67-24A290.9,290.9,0,0,1,491.43,472.77,291,291,0,1,1,172.4-1.14,289.17,289.17,0,0,1,285.67-24m0-19c-171.21,0-310,138.79-310,310s138.79,310,310,310,310-138.79,310-310-138.8-310-310-310Z" transform="translate(24.33 43)"/><path class="cls-3" d="M410.17,164c-12.58-60.38-61.64-81-125.75-81-61.12,0-110.68,33.84-126.25,90-1.54,5.54-4.25,18.66-4.25,24.41v.09c0,72.07,20.25,128.5,130.5,128.5,115.75,0,129.75-60.93,129.75-133C414.17,190.06,410.36,166.89,410.17,164Z" transform="translate(24.33 43)"/><ellipse class="cls-4" cx="310.75" cy="417.5" rx="142.5" ry="100.5"/><path class="cls-5" d="M200.7,376H419.3a78.2,78.2,0,0,1,78.2,78.2v0A162.8,162.8,0,0,1,334.7,617H285.3A162.8,162.8,0,0,1,122.5,454.2v0A78.2,78.2,0,0,1,200.7,376Z"/><path class="cls-6" d="M220.32,414C252.17,461.5,323.16,461.5,355,414a75.17,75.17,0,0,0,12.91-42.82A88.91,88.91,0,0,0,364.27,346H211.06a88.9,88.9,0,0,0-3.64,25.13A75.16,75.16,0,0,0,220.32,414Z" transform="translate(24.33 43)"/><path class="cls-7" d="M429.17,358.86c-9.54-46.09-63.43-82-130.14-85.57,32.67,16.56,56.52,42,65.24,71.71a88.91,88.91,0,0,1,3.65,25.13c0,16.32-24.63,30.46-32.91,42.82-31.85,47.55-52.84,47.55-84.69,0-8.28-12.36-42.9-26.5-42.9-42.82A88.9,88.9,0,0,1,211.06,345c8.73-29.68,32.58-55.15,65.25-71.71-64.51,3.43-117,37.15-129,81a72.28,72.28,0,0,0-2.59,19.16c0,55.27,64.25,90.2,142.5,90.49h1c78.24-.29,142.5-35.22,142.5-90.49A72.79,72.79,0,0,0,429.17,358.86Z" transform="translate(24.33 43)"/><path class="cls-8" d="M284.5,401h0A38.5,38.5,0,0,1,246,362.5V334.26A28.26,28.26,0,0,1,274.26,306h20.48A28.26,28.26,0,0,1,323,334.26V362.5A38.5,38.5,0,0,1,284.5,401Z" transform="translate(24.33 43)"/><path class="cls-9" d="M284.5,365h0A38.5,38.5,0,0,1,246,326.5V298.26A28.26,28.26,0,0,1,274.26,270h20.48A28.26,28.26,0,0,1,323,298.26V326.5A38.5,38.5,0,0,1,284.5,365Z" transform="translate(24.33 43)"/><path class="cls-10" d="M152.17,235.21h0A21.24,21.24,0,0,1,173.41,214h2.76v-9.11h-9.66a30.34,30.34,0,0,0-30.34,30.35h0a30.34,30.34,0,0,0,30.34,30.34h9.66v-9.1h-2.76A21.24,21.24,0,0,1,152.17,235.21Z" transform="translate(24.33 43)"/><path class="cls-9" d="M173.41,214a21.24,21.24,0,0,0-21.24,21.24h0a21.24,21.24,0,0,0,21.24,21.24h2.76V214Z" transform="translate(24.33 43)"/><path class="cls-10" d="M416.17,235.21h0A21.24,21.24,0,0,0,394.93,214h-2.76v-9.11h9.65a30.35,30.35,0,0,1,30.35,30.35h0a30.34,30.34,0,0,1-30.35,30.34h-9.65v-9.1h2.76A21.24,21.24,0,0,0,416.17,235.21Z" transform="translate(24.33 43)"/><path class="cls-9" d="M394.93,214a21.24,21.24,0,0,1,21.24,21.24h0a21.24,21.24,0,0,1-21.24,21.24h-2.76V214Z" transform="translate(24.33 43)"/><path class="cls-8" d="M395.62,234.25v-73A86.26,86.26,0,0,0,309.37,75H259.88a86.26,86.26,0,0,0-86.26,86.26v72.56a37,37,0,0,1,15,61C206.52,323.73,241.49,343,278,343h13.32c35.72,0,70.12-18.49,88.17-46.41a37,37,0,0,1,16.17-62.34Z" transform="translate(24.33 43)"/><path class="cls-11" d="M173.62,233.82v7.84a100.87,100.87,0,0,0,15,53.15,37,37,0,0,0-15-61Z" transform="translate(24.33 43)"/><path class="cls-11" d="M395.62,234.25a37,37,0,0,0-16.17,62.34,100.87,100.87,0,0,0,16.17-54.93Z" transform="translate(24.33 43)"/><path class="cls-12" d="M254.23,121.76C248.39,126.37,245,133,242.41,140c-1.52,4.19-2.63,8.58-4.83,12.82a59.7,59.7,0,0,1-26.48,26,50,50,0,0,0,43.23-57.17Z" transform="translate(24.33 43)"/><path class="cls-13" d="M399.89,191.71A41.38,41.38,0,0,0,411,163.5c0-3-.35-17-.11-21.56A83.51,83.51,0,0,0,327.46,54c-4.83,0-9.56,2.42-14.16,3.21a14.21,14.21,0,0,1-10.61-2.36c-13.81-9.7-30.55-17.51-48.63-17.84-48.6-.87-88.89,39.38-88.89,88,0,6-4,17-7,51,0,.53,37,9,48,9,2,0,6.7.26,9,0,27-3,48.19-10.81,53-38,2.31-13.09,3.17-39.12,4-39.85l.09-.08c0-.35-.05-.71-.05-1.07a15,15,0,0,1,27.72-7.92A34.3,34.3,0,0,1,325,113.53l.13.2a43.83,43.83,0,0,1,4.8,37.08,41.53,41.53,0,0,0,36.55,54.09,5.52,5.52,0,0,1,.58,0c15.38,2.41,31.67-1.29,41.59-14.5a39.37,39.37,0,0,0,3.92-6.43A39.39,39.39,0,0,1,399.89,191.71ZM254.13,138a50,50,0,0,1-43,40.9,59.7,59.7,0,0,0,26.48-26c2.2-4.24,10.81-26.47,16.65-31.08l.1-.08A50,50,0,0,1,254.13,138Z" transform="translate(24.33 43)"/><path class="cls-3" d="M287.17,91a15,15,0,0,0-15,15c0,.36,0,.72.05,1.07a35.15,35.15,0,0,1,27.67-9A15,15,0,0,0,287.17,91Z" transform="translate(24.33 43)"/><circle class="cls-14" cx="255.08" cy="265.58" r="18.58"/><circle class="cls-14" cx="359.92" cy="266.58" r="18.58"/><circle class="cls-15" cx="267" cy="257.5" r="4.5"/><circle class="cls-15" cx="370" cy="257.5" r="4.5"/><rect class="cls-9" x="297.75" y="290" width="25" height="10" rx="5"/><path class="cls-16" d="M285.42,286c-11.05,0-18.4-5.57-20-12" transform="translate(24.33 43)"/><path class="cls-16" d="M286.42,286c11,0,18.39-5.57,20-12" transform="translate(24.33 43)"/><path class="cls-3" d="M197.56,189.38a3.69,3.69,0,0,1-5.15-4.86A36,36,0,0,1,199,175.7a40.91,40.91,0,0,1,40.74-9.61,35.9,35.9,0,0,1,9.88,5,3.69,3.69,0,0,1-2.43,6.65c-3.25-.19-6.31-.26-9.32-.15a85.16,85.16,0,0,0-16.43,2.12,84.16,84.16,0,0,0-15.67,5.41C203.05,186.35,200.36,187.77,197.56,189.38Z" transform="translate(24.33 43)"/><g class="cls-17"><path class="cls-18" d="M230.42,267h0c-18.35,0-33.88-12.89-36.41-30.21l-3-20.93a17.45,17.45,0,0,1,.66-7.91A19.16,19.16,0,0,1,210,195h40.79c11.68,0,20.67,9.84,19.06,20.86l-3.05,20.93C264.3,254.11,248.76,267,230.42,267Z" transform="translate(24.33 43)"/></g><path class="cls-19" d="M174.17,208" transform="translate(24.33 43)"/><g class="cls-17"><path class="cls-18" d="M337.42,267h0c-18.35,0-33.88-12.89-36.41-30.21L298,215.86a17.45,17.45,0,0,1,.66-7.91A19.16,19.16,0,0,1,317,195h40.79c11.68,0,20.67,9.84,19.06,20.86l-3.05,20.93C371.3,254.11,355.76,267,337.42,267Z" transform="translate(24.33 43)"/></g><path class="cls-20" d="M357.81,196c11.68,0,20.67,9.84,19.06,20.86l-3.05,20.93C371.3,255.11,355.76,268,337.42,268h0c-18.35,0-33.88-12.89-36.41-30.21L298,216.86a17.45,17.45,0,0,1,.66-7.91A19.16,19.16,0,0,1,317,196h40.79m0-2H317a21.06,21.06,0,0,0-20.3,14.34,19.32,19.32,0,0,0-.74,8.81l3,20.93a36.65,36.65,0,0,0,13,22.85,40.14,40.14,0,0,0,50.83,0,36.61,36.61,0,0,0,13-22.85l3.05-20.93a19.77,19.77,0,0,0-4.68-15.78A21.57,21.57,0,0,0,357.81,194Z" transform="translate(24.33 43)"/><path class="cls-20" d="M250.81,195c11.68,0,20.67,9.84,19.06,20.86l-3.05,20.93C264.3,254.11,248.76,267,230.42,267h0c-18.35,0-33.88-12.89-36.41-30.21l-3-20.93a17.45,17.45,0,0,1,.66-7.91A19.16,19.16,0,0,1,210,195h40.79m0-2H210a21.06,21.06,0,0,0-20.3,14.34,19.32,19.32,0,0,0-.74,8.81L192,237.08a36.61,36.61,0,0,0,13,22.85,40.14,40.14,0,0,0,50.83,0,36.61,36.61,0,0,0,13-22.85l3.05-20.93a19.77,19.77,0,0,0-4.68-15.78A21.57,21.57,0,0,0,250.81,193Z" transform="translate(24.33 43)"/><path class="cls-3" d="M369.59,189.38a3.69,3.69,0,0,0,5.15-4.86,36,36,0,0,0-6.59-8.82,40.9,40.9,0,0,0-40.74-9.61,35.9,35.9,0,0,0-9.88,5,3.69,3.69,0,0,0,2.43,6.65c3.25-.19,6.31-.26,9.32-.15a85.16,85.16,0,0,1,16.43,2.12,84.16,84.16,0,0,1,15.67,5.41C364.1,186.35,366.79,187.77,369.59,189.38Z" transform="translate(24.33 43)"/><path class="cls-9" d="M270.06,209" transform="translate(24.33 43)"/><path d="M399.92,203.42a2.49,2.49,0,0,0-3.45-1.11l-17,9.28A20.44,20.44,0,0,0,374.55,200a22.07,22.07,0,0,0-16.74-7.54H317a21.57,21.57,0,0,0-20.78,14.68,20.38,20.38,0,0,0-.78,3.4,29.17,29.17,0,0,0-11.29-2.08,28.71,28.71,0,0,0-11.78,2.29A20.49,20.49,0,0,0,267.55,200a22.07,22.07,0,0,0-16.74-7.54H210a21.57,21.57,0,0,0-20.78,14.68,20.35,20.35,0,0,0-.86,4l-12.86-8.32a2.5,2.5,0,0,0-3.58,1,2.59,2.59,0,0,0,1,3.31L189.5,217.9a2.68,2.68,0,0,0,2.23.35,2.52,2.52,0,0,0,1.71-2.75,14.83,14.83,0,0,1,.56-6.78,16.59,16.59,0,0,1,16-11.22h40.79a17.08,17.08,0,0,1,13,5.81,15.16,15.16,0,0,1,3.74,11c0,.39-.05.77-.11,1.16a2.57,2.57,0,0,0,.63,2.09,2.51,2.51,0,0,0,1.84.8,2.36,2.36,0,0,0,1-.23,2.49,2.49,0,0,0,.83-.6,8.5,8.5,0,0,1,2.74-2.18,23.7,23.7,0,0,1,9.7-1.85,25.59,25.59,0,0,1,8.1,1.22,8.8,8.8,0,0,1,3.79,2.76,2.45,2.45,0,0,0,1.45.84,2.22,2.22,0,0,0,.45,0,2.64,2.64,0,0,0,.55-.06,2.58,2.58,0,0,0,1.91-2.93,15.7,15.7,0,0,1-.14-1.66,14.83,14.83,0,0,1,.72-5,16.59,16.59,0,0,1,16-11.22h40.79a17.09,17.09,0,0,1,13,5.81,15.11,15.11,0,0,1,3.63,12.19,2.5,2.5,0,0,0,1.62,2.72,2.65,2.65,0,0,0,2.16-.22l20.56-11.24A2.59,2.59,0,0,0,399.92,203.42Z" transform="translate(24.33 43)"/><line class="cls-21" x1="299.64" y1="492" x2="299.64" y2="563"/><line class="cls-22" x1="299.64" y1="513" x2="299.64" y2="584"/><line class="cls-22" x1="330.64" y1="527" x2="330.64" y2="556"/><line class="cls-21" x1="330.5" y1="496" x2="330.5" y2="537"/><line class="cls-23" x1="422.5" y1="309" x2="422.5" y2="326"/><line class="cls-23" x1="195.5" y1="309" x2="195.5" y2="326"/><path class="cls-2" d="M285.67-24A290.9,290.9,0,0,1,491.43,472.77,291,291,0,1,1,172.4-1.14,289.17,289.17,0,0,1,285.67-24m0-19c-171.21,0-310,138.79-310,310s138.79,310,310,310,310-138.79,310-310-138.8-310-310-310Z" transform="translate(24.33 43)"/></svg>