<?xml version="1.0" encoding="utf-8"?>
<!-- Generator: Adobe Illustrator 23.0.1, SVG Export Plug-In . SVG Version: 6.00 Build 0)  -->
<svg version="1.1" id="Layer_4" xmlns="http://www.w3.org/2000/svg" xmlns:xlink="http://www.w3.org/1999/xlink" x="0px" y="0px"
	 viewBox="0 0 80 80" style="enable-background:new 0 0 80 80;" xml:space="preserve">
<style type="text/css">
	.st0{fill:#B9F9E5;}
	.st1{fill:#03EABE;}
</style>
<title>yellowstar</title>
<g>
	<path class="st0" d="M27.1,62.5c0,0-0.1,0-0.2-0.1c0,0,0-0.1,0-0.1l2.3-15.2c0.1-0.5-0.1-1-0.5-1.3L17.4,35.3
		c-0.1-0.1-0.1-0.2,0-0.3c0,0,0.1-0.1,0.1-0.1l15.2-2.5c0.5-0.1,0.9-0.4,1.1-0.8l6.5-13.9c0.1-0.1,0.2-0.1,0.2-0.1
		c0.1,0,0.2,0.1,0.2,0.1l7.1,13.6c0.2,0.4,0.7,0.7,1.1,0.8l15.3,1.9c0.1,0,0.2,0.1,0.2,0.2c0,0,0,0.1-0.1,0.1l-10.8,11
		c-0.3,0.4-0.5,0.9-0.4,1.3l2.9,15.1c0,0.1,0,0.2-0.2,0.2l-0.1,0L42,55c-0.2-0.1-0.4-0.2-0.7-0.2c-0.2,0-0.5,0.1-0.7,0.2L27.1,62.5
		L27.1,62.5z"/>
	<path class="st1" d="M41.7,18.2L41.7,18.2L41.7,18.2 M40.5,20.6l5.9,11.3c0.5,0.9,1.3,1.5,2.3,1.6l12.7,1.6l-8.9,9.1
		c-0.7,0.7-1,1.7-0.8,2.7l2.4,12.5l-11.4-5.7c-0.4-0.2-0.9-0.3-1.3-0.3c-0.5,0-1,0.1-1.5,0.4l-11.2,6.2l1.9-12.6
		c0.1-1-0.2-2-0.9-2.6L20.4,36l12.6-2.1c1-0.2,1.8-0.8,2.2-1.7L40.5,20.6 M40.5,16c-0.6,0-1.3,0.4-1.5,1l-6.5,13.9l-15.2,2.5
		c-0.4,0.1-0.7,0.2-1,0.5c-0.6,0.7-0.6,1.8,0.1,2.4l11.2,10.5l-2.3,15.2c-0.1,0.4,0,0.7,0.2,1.1c0.3,0.6,0.9,0.9,1.5,0.9
		c0.3,0,0.6-0.1,0.8-0.2l13.5-7.4l13.8,6.9c0.2,0.1,0.5,0.2,0.8,0.2c0.1,0,0.2,0,0.3,0c0.9-0.2,1.5-1.1,1.3-2l-2.9-15.1l10.8-11
		c0.3-0.3,0.4-0.6,0.5-1c0.1-0.9-0.5-1.8-1.5-1.9l-15.3-1.9L42,16.9c-0.2-0.3-0.5-0.6-0.8-0.8C41,16,40.7,16,40.5,16L40.5,16z"/>
</g>
</svg>
