<?xml version="1.0" encoding="utf-8"?>
<!-- Generator: Adobe Illustrator 23.0.1, SVG Export Plug-In . SVG Version: 6.00 Build 0)  -->
<svg version="1.1" id="Layer_4" xmlns="http://www.w3.org/2000/svg" xmlns:xlink="http://www.w3.org/1999/xlink" x="0px" y="0px"
	 viewBox="0 0 93.7 87.5" style="enable-background:new 0 0 93.7 87.5;" xml:space="preserve">
<style type="text/css">
	.st0{fill:#FFFFFF;stroke:#000000;stroke-width:3;stroke-linecap:round;stroke-linejoin:round;}
	.st1{fill:#FFFFFF;stroke:#000000;stroke-width:1.5;stroke-linecap:round;stroke-linejoin:round;}
	.st2{font-family:'Raleway-ExtraBold';}
	.st3{font-size:21px;}
</style>
<title>click</title>
<path class="st0" d="M58.9,25.5c-1.7,0.2-3,1.6-3,3.4v2.7h-0.2v-6.7c0-1.7-1.3-3.2-3-3.4c-1.8-0.2-3.4,1.2-3.6,3c0,0.1,0,0.2,0,0.3
	v6.7h-0.2V21.3c0-1.7-1.3-3.2-3-3.4c-1.8-0.2-3.4,1.2-3.6,3c0,0.1,0,0.2,0,0.3v10.4h-0.2v-20c0-1.7-1.3-3.2-3-3.4
	c-1.8-0.2-3.4,1.2-3.6,3c0,0.1,0,0.2,0,0.3v23.4l0,0c0,1-0.8,1.8-1.8,1.8c-0.5,0-0.9-0.2-1.3-0.5l-2.8-2.8c-1.3-1.3-3.4-1.3-4.7,0
	l0,0c-1.2,1.2-1.3,3.2-0.1,4.5c0.1,0.1,0.2,0.2,0.2,0.3l7.7,12.7c1.8,2.9,4.9,4.7,8.3,4.7h11.6c5.3,0,9.7-4.4,9.7-9.7l0,0V28.8
	c0-1.8-1.5-3.3-3.3-3.3C59.1,25.5,59,25.5,58.9,25.5z"/>
<g>
	<text transform="matrix(1 0 0 1 9.177 73.8219)" class="st1 st2 st3">HOVER</text>
</g>
</svg>
