<svg id="Layer_4" data-name="Layer 4" xmlns="http://www.w3.org/2000/svg" viewBox="0 0 192.5 172.67"><defs><style>.cls-1{fill:#bc8f40;}.cls-2{fill:#f7d9ad;}.cls-3{fill:#edd177;}.cls-4{fill:#fff3e1;}.cls-5{fill:#546b2b;}.cls-6,.cls-7,.cls-9{fill:none;stroke:#664d21;stroke-linecap:round;stroke-miterlimit:10;}.cls-6{stroke-width:3px;}.cls-7{stroke-width:7px;}.cls-8{fill:#84512f;}.cls-9{stroke-width:4px;}.cls-10{fill:#895203;}.cls-11{fill:#664d21;}</style></defs><title>coco</title><g id="head"><g id="ears"><path class="cls-1" d="M581.53,559.39s-14-10.94-42.81-29.36a4.28,4.28,0,0,0-6.62,3.38c-.87,14.61-1.66,49.22,5.75,83.83Z" transform="translate(-506.5 -529.33)"/><path class="cls-1" d="M622.47,559.39s13.38-10.94,42.17-29.36a4.28,4.28,0,0,1,6.62,3.38c.86,14.61,1.65,49.22-5.76,83.83Z" transform="translate(-506.5 -529.33)"/><path class="cls-2" d="M575.41,573.2s-9.71-20.79-34.17-36.41a3.65,3.65,0,0,0-5.62,2.88c-.72,12.45-1.44,41.81,4.9,71.16Z" transform="translate(-506.5 -529.33)"/><path class="cls-2" d="M629.38,573.2s9.71-20.79,34.18-36.41a3.64,3.64,0,0,1,5.61,2.88c.72,12.45,1.44,41.81-4.89,71.16Z" transform="translate(-506.5 -529.33)"/></g><circle class="cls-3" cx="96.62" cy="98.56" r="74.11"/><path class="cls-1" d="M619.3,555.57c-.21,25-2.23,44.47-4.67,44.47s-4.46-20.29-4.68-46l-2.88-.21c0,27.12-2.44,49.07-5.39,49.07s-5.33-21.8-5.4-48.86c-1,.08-1.94.22-2.88.36C593.19,580,591.17,600,588.72,600s-4.38-19.14-4.67-43.82a74.25,74.25,0,0,0-55,71.67A71.69,71.69,0,0,0,531.81,648l27.7-2.51,35.33-6.12c2.88-1.44,12.23-1.44,16.55,0l63,8.63a73.38,73.38,0,0,0,2.74-21.15C676.8,592.13,652,562.91,619.3,555.57Z" transform="translate(-506.5 -529.33)"/></g><g id="face"><path class="cls-4" d="M590.24,617.6a28.28,28.28,0,1,1-56.56,0Z" transform="translate(-506.5 -529.33)"/><path class="cls-5" d="M568.15,617.24c0,13.74-2.74,21.44-6.19,21.44s-6.19-7.7-6.19-21.44" transform="translate(-506.5 -529.33)"/><path class="cls-6" d="M592.68,657.39s7.2-5,22.31-2.16" transform="translate(-506.5 -529.33)"/><line class="cls-7" x1="27.9" y1="88.12" x2="83.38" y2="88.12"/><path class="cls-4" d="M671.83,617.6a28.28,28.28,0,1,1-56.55,0Z" transform="translate(-506.5 -529.33)"/><path class="cls-5" d="M649.74,617.24c0,13.74-2.73,21.44-6.19,21.44s-6.18-7.7-6.18-21.44" transform="translate(-506.5 -529.33)"/><line class="cls-7" x1="109.5" y1="88.12" x2="164.97" y2="88.12"/><line class="cls-6" x1="96.55" y1="112.23" x2="96.55" y2="125.18"/><path class="cls-8" d="M595.92,642.28h0a39.68,39.68,0,0,1,14.25,0h0c2.52,0,3.45-2.09,1.29-2.95l-6.26-2.45a5.6,5.6,0,0,0-4,0l-6.55,2.45C592.47,640.12,593.33,642.28,595.92,642.28Z" transform="translate(-506.5 -529.33)"/><g id="wiskers2"><line class="cls-9" x1="3.08" y1="106.83" x2="25.03" y2="109.35"/><line class="cls-9" x1="25.03" y1="115.1" x2="2" y2="119.42"/><line class="cls-9" x1="26.61" y1="123.02" x2="5.6" y2="133.81"/></g><g id="wiskers"><line class="cls-9" x1="189.42" y1="104.67" x2="167.48" y2="107.19"/><line class="cls-9" x1="167.48" y1="112.95" x2="190.5" y2="117.26"/><line class="cls-9" x1="165.9" y1="120.86" x2="186.91" y2="131.65"/></g><path class="cls-10" d="M601.68,602.92c3,0,5.32-21.95,5.39-49.07-1-.07-2-.07-3-.07-2.66,0-5.25.07-7.84.28C596.35,581.12,598.73,602.92,601.68,602.92Z" transform="translate(-506.5 -529.33)"/><path class="cls-10" d="M614.63,600c2.44,0,4.39-19.5,4.67-44.47a77.68,77.68,0,0,0-9.28-1.43C610.17,579.82,612.18,600,614.63,600Z" transform="translate(-506.5 -529.33)"/><path class="cls-10" d="M588.72,600c2.45,0,4.47-20.07,4.68-45.62a78.44,78.44,0,0,0-9.28,1.8C584.34,580.9,586.35,600,588.72,600Z" transform="translate(-506.5 -529.33)"/></g><path class="cls-11" d="M537.09,533.63h0m130.24.61h0M537,534.88c21.56,13.83,34.61,23.33,39.26,26.81a5,5,0,0,0,3,1,5.26,5.26,0,0,0,1.61-.26c1.4-.48,2.69-.88,3.9-1.22l.55-.11,0,0,.35-.1c.59-.15,1.2-.3,1.88-.45a67.9,67.9,0,0,1,7-1.23l.13,0c.73-.1,1.29-.18,1.86-.22h.06c.72-.06,1.51-.11,2.53-.16l1.07,0h.09c1,0,1.91-.05,2.73-.05h1c.74,0,1.5,0,2.23,0a4.28,4.28,0,0,0,.72.05h0l1,.08.89.07a3.4,3.4,0,0,0,.46.06,69.36,69.36,0,0,1,14.32,2.86,5.09,5.09,0,0,0,1.49.23,5,5,0,0,0,3.05-1c5.57-4.28,17.86-13.33,38-26.24a346.6,346.6,0,0,1-2,59,4.92,4.92,0,0,0,.5,2.87,68.47,68.47,0,0,1,7.39,31.13A69.12,69.12,0,0,1,535.5,642.24l0-.11v-.06c-.14-.66-.26-1.31-.38-2-.06-.31-.11-.63-.16-.94l0-.24v-.09c0-.21-.07-.43-.1-.64-.07-.44-.13-.88-.19-1.32l-.05-.4,0-.21c-.09-.72-.16-1.45-.23-2.18l0-.24-.06-.74-.06-.9v-.08c0-.43,0-.87-.07-1.3v-.15c0-.21,0-.42,0-.64,0-.8,0-1.5,0-2.13,0-.81,0-1.69.06-2.71v-.47c0-.85.09-1.72.16-2.58l0-.28v-.16c.16-1.8.39-3.61.69-5.37l0-.16,0-.12c.15-.86.32-1.75.51-2.63l0-.14,0-.1a68.21,68.21,0,0,1,2.29-8.13c.46-1.29.94-2.56,1.45-3.77a5,5,0,0,0,.33-2.62A344,344,0,0,1,537,534.88m75.05,19h0M667,529.33a4.28,4.28,0,0,0-2.34.7c-21.19,13.56-34,23.06-39.33,27.13A74.28,74.28,0,0,0,610,554.09v0l-2.88-.21v0h0v0c-1-.07-2-.07-3-.07h-1c-1,0-2,0-2.92.06h-.07l-1.18,0c-.89.05-1.78.1-2.67.17h0c-.78.06-1.51.16-2.23.27a72.14,72.14,0,0,0-7.55,1.32c-.8.18-1.59.37-2.38.57v0l-.07,0v0c-1.62.43-3.2.93-4.77,1.46-5-3.74-18.41-13.47-40.56-27.65a4.34,4.34,0,0,0-2.35-.7,4.25,4.25,0,0,0-4.27,4.08,345.84,345.84,0,0,0,2.6,65.94c-.55,1.32-1.07,2.67-1.54,4v0a74.82,74.82,0,0,0-2.46,8.71,2,2,0,0,0-.05.26c-.2.93-.39,1.87-.55,2.82,0,.1,0,.2-.05.29-.32,1.9-.56,3.82-.74,5.76,0,.16,0,.32,0,.48-.08.92-.13,1.84-.18,2.77,0,.17,0,.33,0,.5,0,1-.06,1.93-.06,2.9,0,.76,0,1.53,0,2.29l0,.84c0,.46,0,.93.07,1.39s.05.7.07,1.05l.09,1c.07.79.15,1.56.24,2.34,0,.21.05.43.08.65.06.47.13,1,.2,1.42l.12.78c.07.43.14.85.22,1.27.12.71.26,1.42.41,2.12,0,.07,0,.13,0,.2A74.12,74.12,0,1,0,669.3,594.51a349.35,349.35,0,0,0,2-61.1,4.27,4.27,0,0,0-4.28-4.08Z" transform="translate(-506.5 -529.33)"/></svg>