<svg id="Layer_4" data-name="Layer 4" xmlns="http://www.w3.org/2000/svg" xmlns:xlink="http://www.w3.org/1999/xlink" viewBox="0 0 185.53 110.07"><defs><style>.cls-1{fill:#fff;}.cls-2{fill:#3a0101;}.cls-3{fill:url(#linear-gradient);}.cls-4{fill:url(#linear-gradient-2);}.cls-5{fill:#fc4444;}.cls-6{fill:red;}.cls-7{fill:#fce8ee;}</style><linearGradient id="linear-gradient" x1="1130.98" y1="333.26" x2="1130.98" y2="232.01" gradientUnits="userSpaceOnUse"><stop offset="0" stop-color="#ffbdcb"/><stop offset="0.42" stop-color="#febbc9"/><stop offset="0.57" stop-color="#fbb5c2"/><stop offset="0.68" stop-color="#f5abb7"/><stop offset="0.77" stop-color="#ed9ba6"/><stop offset="0.84" stop-color="#e38890"/><stop offset="0.91" stop-color="#d66f74"/><stop offset="0.97" stop-color="#c75355"/><stop offset="1" stop-color="#bc3f3f"/></linearGradient><linearGradient id="linear-gradient-2" x1="1130.98" y1="331.5" x2="1130.98" y2="233.78" gradientUnits="userSpaceOnUse"><stop offset="0" stop-color="#ff8080"/><stop offset="0.49" stop-color="#fd7e7e"/><stop offset="0.66" stop-color="#f67878"/><stop offset="0.79" stop-color="#eb6c6c"/><stop offset="0.89" stop-color="#da5c5c"/><stop offset="0.97" stop-color="#c44747"/><stop offset="1" stop-color="#bc3f3f"/></linearGradient></defs><title>eye</title><g id="eye"><path class="cls-1" d="M1131,333.28c-43.16,0-79.67-37.22-89.84-48.63a3,3,0,0,1,0-4c10.17-11.4,46.68-48.62,89.84-48.62s79.67,37.22,89.84,48.63a3,3,0,0,1,0,4C1210.65,296.06,1174.14,333.28,1131,333.28Z" transform="translate(-1038.38 -225.21)"/><path class="cls-2" d="M1131,234c42.33,0,78.32,36.71,88.34,48a1,1,0,0,1,0,1.36c-10,11.25-46,48-88.34,48s-78.32-36.71-88.34-48a1,1,0,0,1,0-1.36c10-11.25,46-48,88.34-48m0-4c-44,0-81,37.71-91.33,49.3a5,5,0,0,0,0,6.68c10.32,11.59,47.3,49.3,91.33,49.3s81-37.71,91.33-49.3a5,5,0,0,0,0-6.68C1212,267.71,1175,230,1131,230Z" transform="translate(-1038.38 -225.21)"/><path class="cls-3" d="M1086.64,244.2a58.69,58.69,0,0,0,0,76.88c13.19,7.05,28.3,12.18,44.34,12.18s31.15-5.13,44.34-12.18a58.69,58.69,0,0,0,0-76.88c-13.19-7-28.3-12.19-44.34-12.19S1099.83,237.15,1086.64,244.2Zm93.2,38.44A48.86,48.86,0,1,1,1131,233.78,48.85,48.85,0,0,1,1179.84,282.64Z" transform="translate(-1038.38 -225.21)"/><path class="cls-4" d="M1082.12,282.64A48.86,48.86,0,1,0,1131,233.78,48.85,48.85,0,0,0,1082.12,282.64Zm86.64,0A37.78,37.78,0,1,1,1131,244.86,37.77,37.77,0,0,1,1168.76,282.64Z" transform="translate(-1038.38 -225.21)"/><circle class="cls-5" cx="92.6" cy="57.43" r="40.65"/><circle class="cls-2" cx="92.6" cy="57.43" r="30.74"/><path class="cls-6" d="M1151.8,284.38c5.88-6.67,1.61-17.37-7.27-17.85l-.69,0a12.79,12.79,0,0,0-12.75,11.78,12.8,12.8,0,0,0-12.75-11.78,13.38,13.38,0,0,0-1.8.13c-8.47,1.19-12,11.52-6.29,17.85l19.84,21.9a1.56,1.56,0,0,0,2.32,0Z" transform="translate(-1038.38 -225.21)"/><path class="cls-2" d="M1039.51,280.24a120.81,120.81,0,0,1,8.28-10.71c2.93-3.45,6-6.74,9.3-9.91a142.73,142.73,0,0,1,21.36-17.16,111.67,111.67,0,0,1,25-12.36,82.48,82.48,0,0,1,42.34-3.63,91.5,91.5,0,0,1,13.77,3.55,111.92,111.92,0,0,1,25,12.3A143,143,0,0,1,1206,259.43c3.27,3.17,6.4,6.45,9.34,9.89a122.7,122.7,0,0,1,8.33,10.7,1.19,1.19,0,0,1-1.76,1.58h0c-1.69-1.44-3.36-2.9-5.08-4.3s-3.39-2.83-5.12-4.19c-3.46-2.73-6.93-5.4-10.49-7.94a192.13,192.13,0,0,0-22-13.8c-15.07-8.09-31.41-13.48-47.78-13.54s-32.74,5.34-47.85,13.4A191.27,191.27,0,0,0,1061.57,265c-3.57,2.53-7.06,5.2-10.53,7.92-1.74,1.36-3.45,2.77-5.15,4.19s-3.39,2.85-5.1,4.3h0a.87.87,0,0,1-1.28-1.14Z" transform="translate(-1038.38 -225.21)"/><path class="cls-7" d="M1115.12,260.39h0a19.64,19.64,0,0,0-8.83,9.83l-.66,1.59-.68-1.6a20.57,20.57,0,0,0-9-10h0a19.71,19.71,0,0,0,8.84-9.83l.65-1.59.68,1.6A20.62,20.62,0,0,0,1115.12,260.39Z" transform="translate(-1038.38 -225.21)"/><path class="cls-7" d="M1162.42,299.19h0a9.82,9.82,0,0,0-4.41,4.91l-.33.8-.34-.8a10.26,10.26,0,0,0-4.5-5h0a9.8,9.8,0,0,0,4.42-4.91l.33-.8.34.8A10.33,10.33,0,0,0,1162.42,299.19Z" transform="translate(-1038.38 -225.21)"/></g></svg>