<svg id="Layer_4" data-name="Layer 4" xmlns="http://www.w3.org/2000/svg" xmlns:xlink="http://www.w3.org/1999/xlink" viewBox="0 0 124.51 190.55"><defs><style>.cls-1{fill:#8797c6;}.cls-2{fill:#fcd32b;}.cls-3{fill:#647293;}.cls-4{fill:none;stroke:#4f6184;stroke-linecap:round;stroke-linejoin:round;stroke-width:5px;}.cls-5{fill:url(#radial-gradient);}.cls-6{fill:#fff;}.cls-7{fill:#f9d9b2;}.cls-8{fill:#ba854a;}.cls-9{fill:#b28a59;}</style><radialGradient id="radial-gradient" cx="62.26" cy="64.31" r="49.28" gradientUnits="userSpaceOnUse"><stop offset="0" stop-color="#ffffad"/><stop offset="0.15" stop-color="#ffffa9"/><stop offset="0.3" stop-color="#fffd9c"/><stop offset="0.45" stop-color="#fffb88"/><stop offset="0.61" stop-color="#fff86a"/><stop offset="0.77" stop-color="#fff545"/><stop offset="0.93" stop-color="#fff018"/><stop offset="1" stop-color="#fe0"/></radialGradient></defs><title>lightbulb</title><g id="light-bulb"><path class="cls-1" d="M967.27,656.81h-8c-11.79,0-21.35-5.88-21.35-17.67v-28h50.75v28C988.62,650.93,979.06,656.81,967.27,656.81Z" transform="translate(-900.99 -468.73)"/><path class="cls-2" d="M1023,531a59.76,59.76,0,1,0-99.29,44.81,20.34,20.34,0,0,1,6.81,15.28v10.42a12.41,12.41,0,0,0,12.41,12.41h40.63A12.41,12.41,0,0,0,996,601.53V591a20.18,20.18,0,0,1,6.75-15.15A59.57,59.57,0,0,0,1023,531Z" transform="translate(-900.99 -468.73)"/><rect class="cls-3" x="36.88" y="147.18" width="50.75" height="6.66"/><rect class="cls-3" x="36.88" y="156.37" width="50.75" height="6.66"/><rect class="cls-3" x="36.88" y="165.56" width="50.75" height="6.66"/><path class="cls-4" d="M964,471.24A59.76,59.76,0,0,0,923.71,575.8a20.35,20.35,0,0,1,6.81,15.29V601.5a12.4,12.4,0,0,0,7.35,11.33v26.28c0,11.79,9.56,17.67,21.35,17.67h8c11.79,0,21.35-5.88,21.35-17.67V612.83A12.4,12.4,0,0,0,996,601.5V591a20.18,20.18,0,0,1,6.75-15.15A59.75,59.75,0,0,0,964,471.24Z" transform="translate(-900.99 -468.73)"/><circle class="cls-5" cx="62.26" cy="64.31" r="49.28"/><path class="cls-6" d="M1007.41,522.12a5,5,0,0,1-4.66-3.26,49.8,49.8,0,0,0-14.83-21.09,5,5,0,0,1,6.36-7.63,59.7,59.7,0,0,1,17.79,25.31,5,5,0,0,1-3,6.36A4.87,4.87,0,0,1,1007.41,522.12Z" transform="translate(-900.99 -468.73)"/><path class="cls-6" d="M926.62,566.94a3.71,3.71,0,0,1-2.68-1.15,43.76,43.76,0,0,1-9.79-16.43,3.68,3.68,0,0,1,6.92-2.49,36.28,36.28,0,0,0,8.22,13.86,3.69,3.69,0,0,1-2.67,6.21Z" transform="translate(-900.99 -468.73)"/><circle class="cls-6" cx="108" cy="61" r="5.15"/><path class="cls-7" d="M964.47,544.18h-.09a9.48,9.48,0,0,1-6.63-3.38,9.84,9.84,0,0,1-6.26,2.81c-5.54.32-9.78-4.3-10.25-4.83a2.56,2.56,0,1,1,3.84-3.39c.83.92,3.54,3.26,6.13,3.1,1.61-.09,3.14-1.18,4.56-3.23a2.57,2.57,0,0,1,4.34.2c.67,1.16,2.62,3.58,4.34,3.6,1.24,0,2.68-1.29,4.1-3.66a2.56,2.56,0,0,1,4.32-.11c.6.88,2.76,3.39,4.72,3.39h0c1.42,0,2.69-1.62,3.5-2.94a2.56,2.56,0,1,1,4.36,2.69c-2.15,3.5-4.77,5.31-7.76,5.37a10,10,0,0,1-6.79-3C969,543.05,966.82,544.18,964.47,544.18Z" transform="translate(-900.99 -468.73)"/><path class="cls-8" d="M957.46,605.55l-.35,0a3.09,3.09,0,0,1-2.71-3.41c3.38-29.82-13.51-62.92-13.68-63.25a3.08,3.08,0,0,1,5.47-2.83c.73,1.42,17.91,35.07,14.33,66.78A3.08,3.08,0,0,1,957.46,605.55Z" transform="translate(-900.99 -468.73)"/><path class="cls-9" d="M969.66,605.55a3.08,3.08,0,0,1-3-2.73C963,571.11,980.2,537.46,980.94,536a3.07,3.07,0,1,1,5.46,2.83h0c-.17.33-17.06,33.43-13.68,63.25a3.09,3.09,0,0,1-2.71,3.41Z" transform="translate(-900.99 -468.73)"/><path class="cls-9" d="M948.72,613.94a14.52,14.52,0,0,1,14.52-14.52h0a14.52,14.52,0,0,1,14.53,14.52Z" transform="translate(-900.99 -468.73)"/></g></svg>