<svg xmlns="http://www.w3.org/2000/svg" xmlns:xlink="http://www.w3.org/1999/xlink" viewBox="0 0 2337.64 1026.35"><defs><style>.cls-1{fill:url(#linear-gradient);}.cls-2{fill:url(#linear-gradient-2);}.cls-3{fill:url(#linear-gradient-3);}.cls-4{fill:url(#linear-gradient-4);}.cls-5{fill:#4cc9f1;opacity:0.5;}.cls-6{fill:url(#linear-gradient-5);}.cls-7{fill:url(#linear-gradient-6);}.cls-8{fill:url(#linear-gradient-7);}.cls-9{fill:url(#linear-gradient-8);}.cls-10{fill:url(#linear-gradient-9);}.cls-11{fill:url(#linear-gradient-10);}.cls-12{fill:url(#linear-gradient-11);}.cls-13{fill:url(#linear-gradient-12);}.cls-14{fill:url(#linear-gradient-13);}.cls-15{fill:url(#linear-gradient-14);}.cls-16{fill:url(#linear-gradient-15);}.cls-17{fill:url(#linear-gradient-16);}.cls-18{fill:url(#linear-gradient-17);}</style><linearGradient id="linear-gradient" x1="652.01" y1="181.75" x2="652.01" y2="541.15" gradientUnits="userSpaceOnUse"><stop offset="0" stop-color="#4cc9f1"/><stop offset="0.5" stop-color="#4461ef"/></linearGradient><linearGradient id="linear-gradient-2" x1="1004.28" y1="363.54" x2="1004.28" y2="633.46" gradientUnits="userSpaceOnUse"><stop offset="0" stop-color="#4cc9f1"/><stop offset="0.62" stop-color="#4461ef"/><stop offset="0.96" stop-color="#710ab6"/></linearGradient><linearGradient id="linear-gradient-3" x1="456.38" y1="318.19" x2="456.38" y2="626.94" xlink:href="#linear-gradient-2"/><linearGradient id="linear-gradient-4" x1="1475.52" y1="307.62" x2="1475.52" y2="720.59" gradientUnits="userSpaceOnUse"><stop offset="0" stop-color="#4cc9f1"/><stop offset="0.21" stop-color="#4bb6f1"/><stop offset="0.65" stop-color="#4784f0"/><stop offset="0.93" stop-color="#4461ef"/></linearGradient><linearGradient id="linear-gradient-5" x1="1511.58" y1="767.42" x2="1511.58" y2="445.42" gradientUnits="userSpaceOnUse"><stop offset="0.08" stop-color="#4461ef"/><stop offset="0.17" stop-color="#4572ef"/><stop offset="0.41" stop-color="#4898f0"/><stop offset="0.62" stop-color="#4ab3f1"/><stop offset="0.81" stop-color="#4cc3f1"/><stop offset="0.96" stop-color="#4cc9f1"/></linearGradient><linearGradient id="linear-gradient-6" x1="1550.33" y1="525.98" x2="1550.33" y2="802" gradientUnits="userSpaceOnUse"><stop offset="0.1" stop-color="#4461ef"/><stop offset="0.63" stop-color="#710ab6"/><stop offset="0.78" stop-color="#6f0ab5"/><stop offset="0.85" stop-color="#680ab3"/><stop offset="0.9" stop-color="#5b0aaf"/><stop offset="0.94" stop-color="#490ba9"/><stop offset="0.96" stop-color="#3b0ba4"/></linearGradient><linearGradient id="linear-gradient-7" x1="284.98" y1="477.66" x2="284.98" y2="876.76" gradientUnits="userSpaceOnUse"><stop offset="0" stop-color="#710ab6"/><stop offset="0" stop-color="#700bb7"/><stop offset="0.07" stop-color="#6326c8"/><stop offset="0.16" stop-color="#573cd7"/><stop offset="0.25" stop-color="#4f4de2"/><stop offset="0.37" stop-color="#4858e9"/><stop offset="0.54" stop-color="#455fee"/><stop offset="1" stop-color="#4461ef"/></linearGradient><linearGradient id="linear-gradient-8" x1="336.07" y1="826.7" x2="336.07" y2="493.58" gradientUnits="userSpaceOnUse"><stop offset="0" stop-color="#4461ef"/><stop offset="0.17" stop-color="#475eed"/><stop offset="0.3" stop-color="#5156e9"/><stop offset="0.43" stop-color="#6249e0"/><stop offset="0.54" stop-color="#7a35d5"/><stop offset="0.66" stop-color="#981dc6"/><stop offset="0.76" stop-color="#bc00b5"/></linearGradient><linearGradient id="linear-gradient-9" x1="796.36" y1="820" x2="796.36" y2="472.66" gradientUnits="userSpaceOnUse"><stop offset="0" stop-color="#4461ef"/><stop offset="0.46" stop-color="#7a35d5"/><stop offset="0.98" stop-color="#bc00b5"/></linearGradient><linearGradient id="linear-gradient-10" x1="336.12" y1="728" x2="336.12" y2="984.11" gradientUnits="userSpaceOnUse"><stop offset="0" stop-color="#4461ef"/><stop offset="0.24" stop-color="#475fee"/><stop offset="0.41" stop-color="#5057e9"/><stop offset="0.56" stop-color="#604ae1"/><stop offset="0.71" stop-color="#7738d6"/><stop offset="0.84" stop-color="#9420c8"/><stop offset="0.96" stop-color="#b704b7"/><stop offset="0.98" stop-color="#bc00b5"/></linearGradient><linearGradient id="linear-gradient-11" x1="1749.12" y1="693" x2="1749.12" y2="949.11" xlink:href="#linear-gradient-10"/><linearGradient id="linear-gradient-12" x1="1092.44" y1="689.37" x2="1092.44" y2="959.11" xlink:href="#linear-gradient-10"/><linearGradient id="linear-gradient-13" x1="1454.08" y1="766" x2="1454.08" y2="1118.84" gradientUnits="userSpaceOnUse"><stop offset="0.03" stop-color="#4461ef"/><stop offset="0.26" stop-color="#4896f0"/><stop offset="0.44" stop-color="#4bbbf1"/><stop offset="0.54" stop-color="#4cc9f1"/><stop offset="0.61" stop-color="#50c5ef"/><stop offset="0.68" stop-color="#5bbae7"/><stop offset="0.75" stop-color="#6ea8db"/><stop offset="0.82" stop-color="#898ecb"/><stop offset="0.89" stop-color="#ac6cb5"/><stop offset="0.96" stop-color="#d6449a"/><stop offset="1" stop-color="#f72486"/></linearGradient><linearGradient id="linear-gradient-14" x1="491.22" y1="789.61" x2="491.22" y2="1197.01" gradientUnits="userSpaceOnUse"><stop offset="0.03" stop-color="#4461ef"/><stop offset="0.03" stop-color="#4464ef"/><stop offset="0.08" stop-color="#4783f0"/><stop offset="0.14" stop-color="#499cf0"/><stop offset="0.2" stop-color="#4ab0f1"/><stop offset="0.27" stop-color="#4bbef1"/><stop offset="0.36" stop-color="#4cc7f1"/><stop offset="0.51" stop-color="#4cc9f1"/><stop offset="0.57" stop-color="#6daadd"/><stop offset="0.68" stop-color="#a871b8"/><stop offset="0.77" stop-color="#d3479d"/><stop offset="0.84" stop-color="#ed2d8c"/><stop offset="0.89" stop-color="#f72486"/></linearGradient><linearGradient id="linear-gradient-15" x1="525.52" y1="1164.84" x2="525.52" y2="920.51" gradientUnits="userSpaceOnUse"><stop offset="0.29" stop-color="#3b0ba4"/><stop offset="0.3" stop-color="#3b0ba4"/><stop offset="0.44" stop-color="#530bac"/><stop offset="0.59" stop-color="#640ab2"/><stop offset="0.75" stop-color="#6e0ab5"/><stop offset="0.95" stop-color="#710ab6"/></linearGradient><linearGradient id="linear-gradient-16" x1="1446.32" y1="1134.19" x2="1446.32" y2="888.95" gradientUnits="userSpaceOnUse"><stop offset="0.1" stop-color="#3b0ba4"/><stop offset="0.35" stop-color="#500bab"/><stop offset="0.71" stop-color="#680ab3"/><stop offset="0.93" stop-color="#710ab6"/></linearGradient><linearGradient id="linear-gradient-17" x1="1446.12" y1="952" x2="1446.12" y2="1208.11" gradientUnits="userSpaceOnUse"><stop offset="0" stop-color="#710ab6"/><stop offset="0.98" stop-color="#4461ef"/></linearGradient></defs><title>nightsky</title><g id="Layer_2" data-name="Layer 2"><path class="cls-1" d="M1285.51,431.94a22.75,22.75,0,1,0-37.85-12.41,52.39,52.39,0,0,0-6.81.93,62,62,0,0,0-15.37-67.72,32.76,32.76,0,0,0-56.35-15.25,61.71,61.71,0,0,0-23.92,11.28c-1.78-.19-3.59-.28-5.41-.31a48.33,48.33,0,0,0-93.6-8.65,74.34,74.34,0,0,0-39-3,34,34,0,0,0-41.69-13.58c-.38-.45-.77-.89-1.16-1.33.05-1.16.07-2.32.07-3.5,0-43.31-34.09-78.43-76.15-78.43-37,0-67.75,27.1-74.69,63.06l-1.26.87a67.86,67.86,0,0,0-71.66-33.26c-13.54-51.2-59-88.85-113-88.85-64.69,0-117.12,54-117.12,120.63,0,.91,0,1.81,0,2.72a98.41,98.41,0,0,0-117.22-.7,70.29,70.29,0,0,0-33-8.21c-39.18,0-71.06,32.1-72.27,72.15a69.13,69.13,0,0,0-64.68,20,39.17,39.17,0,0,0,.2-3.93,39.58,39.58,0,0,0-38.71-39.56,31,31,0,0,0-21.58-8.76,31.69,31.69,0,0,0-29.52,20.83,57.86,57.86,0,0,0-5.84-5.33A21.09,21.09,0,1,0,92.82,339.1l-.6,0A57.6,57.6,0,0,0,35.45,387a28.44,28.44,0,1,0,13.4,47.51,57.57,57.57,0,0,0,100.55-31,39.57,39.57,0,0,0,57.82,13,69.12,69.12,0,1,0,135.11,26.34A70.08,70.08,0,0,0,373.24,444l.81.52a98.42,98.42,0,0,0,175.54-52.24q3.55,3.28,7.36,6.26A45.66,45.66,0,0,0,554.26,414c0,24.63,19.39,44.6,43.31,44.6,21.15,0,38.75-15.63,42.54-36.28a113.61,113.61,0,0,0,27.66-6.58c0,.46,0,.91,0,1.37,0,39.92,31.42,72.28,70.18,72.28A68.63,68.63,0,0,0,782.46,473c21.2,31,56.2,51.24,95.81,51.24,38.9,0,73.37-19.54,94.67-49.61a74.55,74.55,0,0,0,65.23,15.76A53.49,53.49,0,1,0,1143,472.84a59.12,59.12,0,0,0,33.33-13.18q2.88.31,5.84.34a40.8,40.8,0,0,0-1.83,12.13c0,.77,0,1.53.07,2.29a11.44,11.44,0,0,0-7.8,10.94,11.29,11.29,0,0,0,11.12,11.46,10.79,10.79,0,0,0,4.29-.88,38.22,38.22,0,0,0,29.73,15.92,52.39,52.39,0,0,0,67.77-79.92Z" transform="translate(119.05 -181.75)"/><path class="cls-2" d="M1386.94,467.41a51.5,51.5,0,0,0-44.38,25.36c-1.35-.1-2.72-.17-4.1-.17a53,53,0,0,0-26.11,6.84,53.91,53.91,0,0,0-68.37-23.7,73.9,73.9,0,0,0-45-79.88,41.71,41.71,0,0,0-46.87-14,53.55,53.55,0,0,0-68.44-10.3,55.61,55.61,0,0,0-80.13,65.53,53.15,53.15,0,0,0-3.15,7.72,64.8,64.8,0,0,0-66-5.49A68.34,68.34,0,0,0,825,404.75,72.93,72.93,0,0,0,741.87,428,67.43,67.43,0,1,0,633.22,507.9a52.92,52.92,0,0,0-15.78,26.53A36,36,0,1,0,636,588.58,52.75,52.75,0,0,0,667.83,600a40,40,0,0,0,37.28,29.49,70.65,70.65,0,0,0,90.61-45.46,45.75,45.75,0,0,0,26.22.2,35.64,35.64,0,0,0,65.18,10.21,57.24,57.24,0,0,0,109.23-6.69,43.69,43.69,0,0,0,57.73,14.64,72.65,72.65,0,0,0,110.55-22.36,62.56,62.56,0,0,0,74.95-7.31A53.9,53.9,0,0,0,1292,572a53.26,53.26,0,0,0,93.7-1.53c.41,0,.81,0,1.22,0a51.52,51.52,0,0,0,0-103Z" transform="translate(119.05 -181.75)"/><path class="cls-3" d="M956.81,481a68.42,68.42,0,0,0-122.9-41.39,47.8,47.8,0,0,0-47.48-42.33,48.48,48.48,0,0,0-8.13.7,58.82,58.82,0,0,0-60.5-19.91,44.39,44.39,0,0,0-5.64-9.84,55.76,55.76,0,0,0-99.92-28A39.24,39.24,0,0,0,555,358.6,112.9,112.9,0,0,0,539,351.05a63.47,63.47,0,0,0-99.09-2.31,49.13,49.13,0,0,0-77.16,5.06c-1.34-.61-2.7-1.2-4.07-1.76a47.51,47.51,0,0,0-86.52-.31,114.73,114.73,0,0,0-24.52,13.54,70.28,70.28,0,0,0-13.86-1.38,69.34,69.34,0,0,0-58.2,31.59c-.66,0-1.31-.05-2-.05a66.36,66.36,0,0,0-7.09.38,62.26,62.26,0,0,0-71.33-1.76,64.63,64.63,0,0,0-57.74,46A48.11,48.11,0,1,0-.91,522.55a50.74,50.74,0,1,0,99.3.53l1,0A64.27,64.27,0,0,0,132,514.29a66.67,66.67,0,0,0,65.82,10.09,43.9,43.9,0,0,0,76.49,41.72l1,.4a42.61,42.61,0,0,0,53.26,23.89,68.42,68.42,0,0,0,89.67-43,40,40,0,0,0,25.24,12.53A114.26,114.26,0,0,0,486.92,573a52.9,52.9,0,0,0,23-.1,114.32,114.32,0,0,0,39.72-11.66,115.05,115.05,0,0,0,182.55,32,68.31,68.31,0,0,0,113.79,6,67.49,67.49,0,0,0,54.75-50.93A68.44,68.44,0,0,0,956.81,481Z" transform="translate(119.05 -181.75)"/><path class="cls-4" d="M2149.71,661.43a17.47,17.47,0,0,0-25.17-6.83c-.1.06-.18.13-.28.2a26.47,26.47,0,0,0-21.78-17.28,41.23,41.23,0,0,0-67.9-24.74,64.36,64.36,0,0,0-3.88-5.8,19.88,19.88,0,0,0,7.31-26.4,59.64,59.64,0,0,0-91.14-64.52q.42-4.39.42-8.89a94.05,94.05,0,0,0-140.06-82,168.87,168.87,0,0,0-322,.7,135.37,135.37,0,0,0-264.34,9.64,47,47,0,0,0-19.2,20A101.14,101.14,0,0,0,1033,530.8v0a1.31,1.31,0,0,1-2.07,1.08,85.34,85.34,0,0,0-133.82,54.52,59.64,59.64,0,1,0-54.22,103.36,15.35,15.35,0,1,0,9.48,1.87,60.44,60.44,0,0,0,6.76.39,59.64,59.64,0,0,0,55.39-37.54,85.65,85.65,0,0,0,30.68,24.1,42.92,42.92,0,0,0,85.83-.94,43.79,43.79,0,0,0-.54-6.82,85.68,85.68,0,0,0,24.08-26.13c0,.18,0,.36,0,.54a62.39,62.39,0,0,0,112.21,37.55,85.31,85.31,0,0,0,117.35-10.94,80.08,80.08,0,0,0,135.56,6.74,85.32,85.32,0,0,0,127.41-13.28,79.95,79.95,0,0,0,78.08-21.39,170,170,0,0,0,48.22-.85,68.57,68.57,0,0,0,110.44,22,94,94,0,0,0,137.75,1.18,62.78,62.78,0,0,0,113.72,9.18,41.23,41.23,0,0,0,44,5.65,26.49,26.49,0,0,0,41.05-1.11,17.47,17.47,0,0,0,29.37-18.58Z" transform="translate(119.05 -181.75)"/><path class="cls-5" d="M2036.34,566.32a71.75,71.75,0,0,0-129.35-39,50.14,50.14,0,0,0-50.36-43.76,50.83,50.83,0,0,0-8.52.85,61.68,61.68,0,0,0-63.71-20.08,46.57,46.57,0,0,0-6.05-10.24,58.48,58.48,0,0,0-105.16-28,41.16,41.16,0,0,0-59.81,20,120.79,120.79,0,0,0-16.82-7.71,66.57,66.57,0,0,0-104-1.09,51.54,51.54,0,0,0-80.85,6.34q-2.13-.93-4.29-1.79a49.83,49.83,0,0,0-90.74.83,120.8,120.8,0,0,0-25.53,14.53,73.55,73.55,0,0,0-14.55-1.27A72.75,72.75,0,0,0,1216,489.8c-.69,0-1.37,0-2.06,0a69.87,69.87,0,0,0-7.43.49A65,65,0,0,0,1167.66,478c-13.34.17-23.94,10.67-34.19,17.67-13.57,1-29.36,2.75-46.8,9.17-20.5,7.55-33.69,33-33.94,33-26.21,1.38-78,7-88.08,31.2-13.77,33-19.6,72,6.42,74.31-.74,3.65,47.66,12.65,47.71,16.52.38,30.21,38.66,31,69.16,29.21a53.25,53.25,0,0,0,48.82-64.5c.36,0,.72,0,1.07,0a67.42,67.42,0,0,0,34-9.68,70,70,0,0,0,69.16,9.7,46,46,0,0,0,80.58,43l1.3.14a44.69,44.69,0,0,0,56.18,24.34,71.76,71.76,0,0,0,93.46-46.33,41.86,41.86,0,0,0,26.63,12.81,120,120,0,0,0,45.7,13.19,55.73,55.73,0,0,0,24.17-.42,119.93,119.93,0,0,0,41.49-12.76,120.67,120.67,0,0,0,191.87,31.14,71.64,71.64,0,0,0,119.41,4.74,70.77,70.77,0,0,0,56.73-54.15A71.77,71.77,0,0,0,2036.34,566.32Z" transform="translate(119.05 -181.75)"/><path class="cls-6" d="M2036.34,609.44a71.75,71.75,0,0,0-129.35-39,50.13,50.13,0,0,0-58.88-42.91,61.61,61.61,0,0,0-63.71-20.07,46.64,46.64,0,0,0-6.05-10.25,58.48,58.48,0,0,0-105.16-28,41.18,41.18,0,0,0-59.81,20,118.52,118.52,0,0,0-16.82-7.71,66.58,66.58,0,0,0-104-1.1,51.54,51.54,0,0,0-80.85,6.34c-1.42-.62-2.85-1.21-4.29-1.79a49.83,49.83,0,0,0-90.74.83,120.4,120.4,0,0,0-25.53,14.54A72.88,72.88,0,0,0,1216,532.92c-.69,0-1.37,0-2.06,0a69.87,69.87,0,0,0-7.43.49,65.31,65.31,0,0,0-74.83-.88,67.77,67.77,0,0,0-59.93,49,50.46,50.46,0,1,0-39.16,87,53.21,53.21,0,1,0,104.14-.77c.36,0,.72,0,1.07,0a67.32,67.32,0,0,0,34-9.68,70,70,0,0,0,69.16,9.7,46,46,0,0,0,80.58,43l1.3.14a44.69,44.69,0,0,0,56.18,24.34,71.73,71.73,0,0,0,93.46-46.33,41.86,41.86,0,0,0,26.63,12.81,119.82,119.82,0,0,0,45.7,13.19,55.73,55.73,0,0,0,24.17-.42,119.93,119.93,0,0,0,41.49-12.76,120.67,120.67,0,0,0,191.87,31.15,71.65,71.65,0,0,0,119.41,4.73,70.77,70.77,0,0,0,56.73-54.15A71.77,71.77,0,0,0,2036.34,609.44Z" transform="translate(119.05 -181.75)"/><path class="cls-7" d="M2185.37,699.68a33.28,33.28,0,0,0-5.5.46c.13-1.43.21-2.87.21-4.34a46.45,46.45,0,0,0-16-35.08,69.69,69.69,0,0,0-86.6-65.41A57.23,57.23,0,0,0,1984,576.43a103.26,103.26,0,0,0-191.63,44.17,51.31,51.31,0,0,0-4.87,2.86,71.25,71.25,0,0,0-137.1,36.11A63.63,63.63,0,0,0,1575,689.26c0-.37,0-.73,0-1.11a33.32,33.32,0,0,0-52-27.58c.15-1.63.23-3.29.23-5A52.55,52.55,0,0,0,1445,609.78a94.34,94.34,0,0,0-179.87.39,75.62,75.62,0,0,0-147.67,5.39,26.33,26.33,0,0,0-10.73,11.19,56.51,56.51,0,0,0-94.25,42c0,.5,0,1,0,1.5a47.67,47.67,0,0,0-75.93,29.58,33.31,33.31,0,1,0-30.29,57.74,8.58,8.58,0,1,0,5.3,1,33.25,33.25,0,0,0,34.72-20.76,47.79,47.79,0,0,0,17.14,13.47,24,24,0,1,0,47.64-4.34,47.92,47.92,0,0,0,13.46-14.6c0,.11,0,.2,0,.31a34.85,34.85,0,0,0,62.68,21,47.68,47.68,0,0,0,65.56-6.12,44.74,44.74,0,0,0,75.73,3.77A47.67,47.67,0,0,0,1299.7,744c54.88,28.83,90,10.59,105.69,10.59A38.17,38.17,0,0,0,1432,743.84a52.52,52.52,0,0,0,77,.65,35.07,35.07,0,0,0,63.53,5.13,23.53,23.53,0,0,0,3.07,2.16,63.61,63.61,0,0,0,94.78,18.1,50.09,50.09,0,0,0,96.64-13.43,54,54,0,0,0,67.83,6.84,49.81,49.81,0,0,0,59.08-4.89,46.2,46.2,0,0,0,19.18-.67,56.82,56.82,0,0,0,83.06-21.93c-.07.82-.11,1.66-.11,2.51a28.72,28.72,0,0,0,51.14,18c1.28.07,2.56.12,3.85.12a67.23,67.23,0,0,0,22.71-3.94,47.34,47.34,0,0,0,86.22,1.74,33.21,33.21,0,1,0,25.49-54.5Z" transform="translate(119.05 -181.75)"/></g><g id="Layer_3" data-name="Layer 3"><path class="cls-8" d="M689,609.13a55.23,55.23,0,0,0-99.22-33.41,38.54,38.54,0,0,0-44.9-33.61A47.44,47.44,0,0,0,496.05,526a35.68,35.68,0,0,0-4.56-7.94,45,45,0,0,0-80.67-22.6,31.7,31.7,0,0,0-46.23,14.8,93,93,0,0,0-12.87-6.1,51.26,51.26,0,0,0-80-1.87,39.68,39.68,0,0,0-62.3,4.09c-1.08-.49-2.18-1-3.28-1.42a38.36,38.36,0,0,0-69.85-.25,92.4,92.4,0,0,0-19.8,10.94A56.11,56.11,0,0,0,58.3,540.06c-.53,0-1.06,0-1.59,0a53.93,53.93,0,0,0-5.72.31A50.28,50.28,0,0,0-6.6,538.91a52.19,52.19,0,0,0-46.62,37.17,38.7,38.7,0,0,0-27-10.91A38.85,38.85,0,0,0-119,604a38.87,38.87,0,0,0,34.84,38.65,40.64,40.64,0,0,0-.93,8.68,41,41,0,0,0,41,41,41,41,0,0,0,41-41A41.44,41.44,0,0,0-4,643.09l.82,0A51.86,51.86,0,0,0,23.07,636a53.84,53.84,0,0,0,53.15,8.14A35.45,35.45,0,0,0,138,677.82l.85.32a34.44,34.44,0,0,0,43,19.29,55.25,55.25,0,0,0,72.4-34.75,32.19,32.19,0,0,0,20.37,10.12,92.24,92.24,0,0,0,35.05,10.6,42.56,42.56,0,0,0,18.61-.08,92.18,92.18,0,0,0,32.06-9.42A92.89,92.89,0,0,0,507.7,699.76a55.15,55.15,0,0,0,91.86,4.82,54.5,54.5,0,0,0,44.21-41.12A55.25,55.25,0,0,0,689,609.13Z" transform="translate(119.05 -181.75)"/><path class="cls-9" d="M672.8,680.59a45.3,45.3,0,0,0-39,22.31c-1.2-.09-2.4-.15-3.62-.15a46.59,46.59,0,0,0-23,6A47.44,47.44,0,0,0,547,687.91a66.39,66.39,0,0,0,.79-10.14,65,65,0,0,0-40.37-60.15,36.67,36.67,0,0,0-41.25-12.34A47.09,47.09,0,0,0,406,596.22a48.92,48.92,0,0,0-70.51,57.65,46.36,46.36,0,0,0-2.77,6.8,57,57,0,0,0-58.06-4.83,60.13,60.13,0,0,0-96.31-30.39,64.18,64.18,0,0,0-73.14,20.47,59.33,59.33,0,1,0-95.6,70.29A46.54,46.54,0,0,0-4.33,739.56a31.57,31.57,0,0,0-10-1.62A31.66,31.66,0,0,0-46,769.6a31.66,31.66,0,0,0,31.66,31.66,31.65,31.65,0,0,0,26.32-14,46.36,46.36,0,0,0,28,10.08,35.19,35.19,0,0,0,32.8,26,62.17,62.17,0,0,0,79.74-40,40.24,40.24,0,0,0,23.07.18,31.36,31.36,0,0,0,57.35,9,50.38,50.38,0,0,0,96.13-5.88,38.45,38.45,0,0,0,50.79,12.88,63.92,63.92,0,0,0,97.28-19.68,55,55,0,0,0,65.95-6.43,47.45,47.45,0,0,0,46.15-.71,46.87,46.87,0,0,0,82.45-1.35l1.08,0a45.34,45.34,0,1,0,0-90.67Z" transform="translate(119.05 -181.75)"/><path class="cls-10" d="M1041.82,734.15a27.09,27.09,0,0,0-4.62.39c.11-1.2.18-2.41.18-3.64A39,39,0,0,0,1024,701.47a58.49,58.49,0,0,0-72.66-54.89,48,48,0,0,0-78.51-15.84A86.63,86.63,0,0,0,712,667.8a41.68,41.68,0,0,0-4.09,2.4,59.78,59.78,0,0,0-115,30.3,53.39,53.39,0,1,0,16.72,92.55,42,42,0,0,0,81.09-11.27,45.25,45.25,0,0,0,56.91,5.74,41.79,41.79,0,0,0,49.57-4.1,38.69,38.69,0,0,0,6.68.58,39.36,39.36,0,0,0,9.41-1.14A47.69,47.69,0,0,0,883,764.45c-.06.7-.09,1.4-.09,2.11a24.1,24.1,0,0,0,42.91,15.06c1.07.06,2.14.1,3.23.1a56.16,56.16,0,0,0,19.05-3.31,39.71,39.71,0,0,0,72.34,1.47,27.87,27.87,0,1,0,21.39-45.73Z" transform="translate(119.05 -181.75)"/><path class="cls-11" d="M753.6,946.34a10.83,10.83,0,0,0-15-3.16l-.17.13a15.9,15.9,0,0,0-1.68-3.38,16.4,16.4,0,0,0-11.83-7.34,25.56,25.56,0,0,0-42.1-15.34,38.26,38.26,0,0,0-2.41-3.6A12.3,12.3,0,0,0,685,897.28a37,37,0,0,0-56.52-40c.17-1.82.26-3.66.26-5.51a58.32,58.32,0,0,0-86.86-50.87,104.73,104.73,0,0,0-199.68.43,83.94,83.94,0,0,0-163.92,6,29.19,29.19,0,0,0-11.91,12.42A62.73,62.73,0,0,0,61.69,866.41c0,.55,0,1.1,0,1.65a52.92,52.92,0,0,0-84.29,32.85,36.83,36.83,0,0,0-23.55-8.47,37,37,0,0,0-37,37A37,37,0,0,0-56.21,965a9.51,9.51,0,0,0-8.32,9.43A9.52,9.52,0,0,0-55,984a9.52,9.52,0,0,0,9.52-9.52,9.51,9.51,0,0,0-4.84-8.28,36.43,36.43,0,0,0,4.2.25,37,37,0,0,0,34.35-23.28,53.08,53.08,0,0,0,19,14.94,26.62,26.62,0,1,0,52.89-4.81,53.05,53.05,0,0,0,14.94-16.2c0,.11,0,.22,0,.33a38.69,38.69,0,0,0,69.59,23.29,52.9,52.9,0,0,0,72.77-6.79,49.67,49.67,0,0,0,84.07,4.19,52.93,52.93,0,0,0,79-8.24,49.58,49.58,0,0,0,48.42-13.27,105.64,105.64,0,0,0,29.91-.52,42.53,42.53,0,0,0,68.48,13.65,58.32,58.32,0,0,0,85.43.73,38.93,38.93,0,0,0,70.52,5.7,25.56,25.56,0,0,0,27.28,3.5,16.43,16.43,0,0,0,25.46-.69,10.83,10.83,0,0,0,17.59-12.6Z" transform="translate(119.05 -181.75)"/><path class="cls-12" d="M2166.6,911.34a10.83,10.83,0,0,0-15-3.16l-.17.13a15.9,15.9,0,0,0-1.68-3.38,16.4,16.4,0,0,0-11.83-7.34,25.56,25.56,0,0,0-42.1-15.34,38.26,38.26,0,0,0-2.41-3.6,12.3,12.3,0,0,0,4.53-16.37,37,37,0,0,0-56.52-40c.17-1.82.26-3.66.26-5.51a58.32,58.32,0,0,0-86.86-50.87,104.73,104.73,0,0,0-199.68.43,83.94,83.94,0,0,0-163.92,6,29.19,29.19,0,0,0-11.91,12.42,62.73,62.73,0,0,0-104.63,46.69c0,.55,0,1.1,0,1.65a52.92,52.92,0,0,0-84.29,32.85,37,37,0,1,0-33.63,64.1,9.51,9.51,0,1,0,5.88,1.15,36.43,36.43,0,0,0,4.2.25,37,37,0,0,0,34.35-23.28,53.08,53.08,0,0,0,19,14.94,26.62,26.62,0,1,0,52.89-4.81,53.05,53.05,0,0,0,14.94-16.2c0,.11,0,.22,0,.33a38.69,38.69,0,0,0,69.59,23.29,52.9,52.9,0,0,0,72.77-6.79,49.67,49.67,0,0,0,84.07,4.19,52.93,52.93,0,0,0,79-8.24,49.58,49.58,0,0,0,48.42-13.27,105.43,105.43,0,0,0,13.13.82c5.71,0,38.32,24.2,55.78,24.2a42.37,42.37,0,0,0,29.48-11.89,58.32,58.32,0,0,0,85.43.73,38.93,38.93,0,0,0,70.52,5.7,25.56,25.56,0,0,0,27.28,3.5,16.43,16.43,0,0,0,25.46-.69,10.83,10.83,0,0,0,17.59-12.6Z" transform="translate(119.05 -181.75)"/><path class="cls-13" d="M1532.15,919.33a11.41,11.41,0,0,0-15.79-3.33l-.18.13A17.29,17.29,0,0,0,1502,904.85a26.93,26.93,0,0,0-44.35-16.16,42.33,42.33,0,0,0-2.53-3.79,13,13,0,0,0,6.3-11.13,12.84,12.84,0,0,0-1.53-6.11,39,39,0,0,0-59.53-42.15c.18-1.91.28-3.84.28-5.8a61.44,61.44,0,0,0-91.49-53.58,110.31,110.31,0,0,0-210.31.46,88.41,88.41,0,0,0-172.65,6.3A30.73,30.73,0,0,0,913.6,786a66.07,66.07,0,0,0-110.2,49.17c0,.58,0,1.17,0,1.75a55.73,55.73,0,0,0-88.78,34.59A39,39,0,1,0,679.23,939a10,10,0,1,0,6.19,1.22,40.2,40.2,0,0,0,4.42.26A39,39,0,0,0,726,915.94a55.85,55.85,0,0,0,20,15.75,28,28,0,0,0,56.06-.62,28.33,28.33,0,0,0-.35-4.45,56,56,0,0,0,15.73-17.07c0,.12,0,.23,0,.35a40.75,40.75,0,0,0,73.29,24.53,55.72,55.72,0,0,0,76.65-7.15,52.31,52.31,0,0,0,88.55,4.41,55.73,55.73,0,0,0,83.22-8.68,52.16,52.16,0,0,0,51-14,111.52,111.52,0,0,0,31.5-.55,44.8,44.8,0,0,0,72.13,14.38,61.42,61.42,0,0,0,90,.77,41,41,0,0,0,74.28,6,26.92,26.92,0,0,0,28.74,3.69,17.31,17.31,0,0,0,26.81-.73,11.41,11.41,0,0,0,18.53-13.27Z" transform="translate(119.05 -181.75)"/><path class="cls-14" d="M1413,1030c-20.23,0-84.93-9.82-128.5-9.82a83.1,83.1,0,0,1-65.56-31.92l-.68-.44a59.55,59.55,0,0,1-26.15-1,58.47,58.47,0,1,1-114.3-22.28,33.48,33.48,0,0,1-48.91-11,48.71,48.71,0,0,1-85.06,26.26,24.06,24.06,0,1,1-17.16-40.91,24.37,24.37,0,0,1,5.83.71,48.72,48.72,0,0,1,48-40.56l.51,0a17.83,17.83,0,1,1,29.76,10.54,49,49,0,0,1,4.94,4.5,26.83,26.83,0,0,1,25-17.62,26.3,26.3,0,0,1,18.26,7.41,33.54,33.54,0,0,1,32.58,36.8,58.28,58.28,0,0,1,42.38-18.21,58.88,58.88,0,0,1,12.33,1.31c1-33.88,28-61,61.14-61a59.45,59.45,0,0,1,27.91,6.94,83.27,83.27,0,0,1,99.17.59c0-.76,0-1.53,0-2.3,0-56.35,44.36-102,99.08-102,45.68,0,84.13,31.85,95.59,75.16a58,58,0,0,1,10.62-1,57.44,57.44,0,0,1,50,29.14l1.07-.74c5.87-30.42,31.92-53.35,63.18-53.35,35.58,0,64.42,29.71,64.42,66.36,0,1,0,2-.06,2.95l1,1.12a28.82,28.82,0,0,1,35.27,11.5,62.85,62.85,0,0,1,33,2.57,40.88,40.88,0,0,1,79.18,7.32c1.54,0,3.07.1,4.57.26a52.29,52.29,0,0,1,20.24-9.54,27.7,27.7,0,0,1,47.67,12.89,52.47,52.47,0,0,1,13,57.29,45.35,45.35,0,0,1,5.76-.78,19.24,19.24,0,1,1,32,10.5,44.32,44.32,0,0,1-57.33,67.61,32.35,32.35,0,0,1-25.15-13.48,9.12,9.12,0,0,1-3.62.75,9.56,9.56,0,0,1-9.42-9.69,9.69,9.69,0,0,1,6.6-9.26c0-.64-.06-1.29-.06-1.94a34.71,34.71,0,0,1,1.55-10.26c-1.66,0-3.31-.11-4.93-.28a50.11,50.11,0,0,1-28.2,11.14,45.25,45.25,0,1,1-88.68,14.83,63,63,0,0,1-55.18-13.33c-18,25.44-47.17,42-80.08,42-33.51,0-63.12-17.13-81-43.35a58.06,58.06,0,0,1-37.69,13.9l-118.72-26" transform="translate(119.05 -181.75)"/><path class="cls-15" d="M955.8,968.39a63.52,63.52,0,0,0-114.58-37,44.32,44.32,0,0,0-52.11-38,54.59,54.59,0,0,0-56.39-17.77,41.91,41.91,0,0,0-5.36-9.07,51.77,51.77,0,0,0-93.09-24.79,36.44,36.44,0,0,0-52.94,17.69,106.08,106.08,0,0,0-14.88-6.83,58.94,58.94,0,0,0-92-1,45.62,45.62,0,0,0-71.56,5.62c-1.26-.55-2.53-1.08-3.8-1.58a44.1,44.1,0,0,0-80.32.73,106.67,106.67,0,0,0-22.6,12.86,64.54,64.54,0,0,0-66.54,28.9c-.61,0-1.21,0-1.83,0a61.94,61.94,0,0,0-6.57.44,57.81,57.81,0,0,0-66.23-.79,60,60,0,0,0-53,43.43,44.66,44.66,0,1,0-34.67,77,47.78,47.78,0,0,0-.94,10,47.1,47.1,0,1,0,94.2-1.2,47.71,47.71,0,0,0-1.07-9.48l.94,0a59.75,59.75,0,0,0,30.13-8.57,61.93,61.93,0,0,0,61.22,8.58,40.76,40.76,0,0,0,71.5,37.82l1,.36a39.58,39.58,0,0,0,49.72,21.55,63.53,63.53,0,0,0,82.73-41,37.12,37.12,0,0,0,23.58,11.33,106,106,0,0,0,40.45,11.68,49.15,49.15,0,0,0,10.5,1,50,50,0,0,0,10.89-1.36,106.17,106.17,0,0,0,36.73-11.3,106.82,106.82,0,0,0,169.84,27.57,63.41,63.41,0,0,0,105.69,4.19,62.63,62.63,0,0,0,50.22-47.93A63.53,63.53,0,0,0,955.8,968.39Z" transform="translate(119.05 -181.75)"/><path class="cls-16" d="M1087.64,1074.26a30.1,30.1,0,0,0-4.87.41c.12-1.26.19-2.54.19-3.84a41.12,41.12,0,0,0-14.12-31,61.7,61.7,0,0,0-76.67-57.9,50.65,50.65,0,0,0-82.82-16.71,91.4,91.4,0,0,0-169.62,39.1,44.25,44.25,0,0,0-4.32,2.52,63.07,63.07,0,0,0-121.35,32,56.34,56.34,0,0,0-66.7,26.28c0-.33,0-.65,0-1a29.48,29.48,0,0,0-46-24.41c.14-1.45.21-2.92.21-4.4a46.52,46.52,0,0,0-69.26-40.56A83.5,83.5,0,0,0,273.1,995a66.94,66.94,0,0,0-130.72,4.77,23.31,23.31,0,0,0-9.49,9.9,50,50,0,0,0-83.42,37.22c0,.45,0,.89,0,1.33a42.19,42.19,0,0,0-67.21,26.18,29.4,29.4,0,0,0-18.78-6.75A29.49,29.49,0,0,0-66,1097.18a29.49,29.49,0,0,0,21.46,28.37,7.6,7.6,0,0,0-6.64,7.53,7.59,7.59,0,0,0,7.59,7.59,7.59,7.59,0,0,0,7.59-7.59,7.57,7.57,0,0,0-3.85-6.6,30.58,30.58,0,0,0,3.34.19,29.49,29.49,0,0,0,27.39-18.56A42.46,42.46,0,0,0,6.05,1120a21.22,21.22,0,0,0,42.44-.47,20.8,20.8,0,0,0-.27-3.37,42.38,42.38,0,0,0,11.91-12.92v.26a30.85,30.85,0,0,0,55.48,18.57,42.18,42.18,0,0,0,58-5.41,39.6,39.6,0,0,0,67,3.34,42.2,42.2,0,0,0,63-6.57c48.58,25.52,79.64,9.37,93.55,9.37a33.79,33.79,0,0,0,23.51-9.48,46.49,46.49,0,0,0,68.12.58,31,31,0,0,0,56.23,4.54,20.37,20.37,0,0,0,2.71,1.91,56.29,56.29,0,0,0,83.9,16,44.34,44.34,0,0,0,85.55-11.88,47.76,47.76,0,0,0,60,6,44.11,44.11,0,0,0,52.29-4.32,41.22,41.22,0,0,0,17-.6,50.3,50.3,0,0,0,73.52-19.42c-.06.74-.1,1.48-.1,2.22a25.43,25.43,0,0,0,45.27,15.9c1.13.06,2.26.1,3.41.1a59.25,59.25,0,0,0,20.1-3.49,41.9,41.9,0,0,0,76.32,1.55,29.4,29.4,0,1,0,22.56-48.25Z" transform="translate(119.05 -181.75)"/><path class="cls-17" d="M1939.34,1068.36a29.69,29.69,0,0,0-4.89-.09c.24-1.25.45-2.51.58-3.8a41.11,41.11,0,0,0-10.92-32.32,61.69,61.69,0,0,0-70.41-65.35,50.66,50.66,0,0,0-80.71-25,91.41,91.41,0,0,0-172.71,21.75,44.44,44.44,0,0,0-4.55,2.08,63.07,63.07,0,0,0-124,19.53,56.32,56.32,0,0,0-76.86,35.91,36.64,36.64,0,0,0-6.28-7.16,53.89,53.89,0,0,0-67-50.58,44.26,44.26,0,0,0-72.36-14.61,79.86,79.86,0,0,0-148.2,34.16,40.4,40.4,0,0,0-3.77,2.21,55.11,55.11,0,0,0-106,27.93,49.22,49.22,0,1,0,15.41,85.31,38.75,38.75,0,0,0,74.75-10.38,41.72,41.72,0,0,0,52.45,5.29,38.56,38.56,0,0,0,45.69-3.78,36.75,36.75,0,0,0,6.16.53,36,36,0,0,0,8.68-1.06,43.94,43.94,0,0,0,64.23-17c-.05.64-.09,1.29-.09,1.94a22.22,22.22,0,0,0,39.56,13.89c1,0,2,.09,3,.09a51.8,51.8,0,0,0,17.56-3.05,36.61,36.61,0,0,0,66.68,1.35,25.68,25.68,0,0,0,38.61,1,56.32,56.32,0,0,0,55.49-3.06,44.35,44.35,0,0,0,86.32-3.17,47.78,47.78,0,0,0,59.12,12.1,44.11,44.11,0,0,0,52.46,1,40.65,40.65,0,0,0,7,1.32,41.15,41.15,0,0,0,10-.2,50.29,50.29,0,0,0,75.11-11.88c-.14.73-.25,1.46-.33,2.2a25.43,25.43,0,0,0,43.44,20.39c1.11.18,2.24.33,3.38.45a59.41,59.41,0,0,0,20.35-1.44,41.9,41.9,0,0,0,75.77,9.26,29.4,29.4,0,1,0,27.33-45.72Z" transform="translate(119.05 -181.75)"/><path class="cls-18" d="M1863.6,1170.34a10.83,10.83,0,0,0-15-3.16l-.17.13a15.9,15.9,0,0,0-1.68-3.38,16.4,16.4,0,0,0-11.83-7.34,25.56,25.56,0,0,0-42.1-15.34,38.26,38.26,0,0,0-2.41-3.6,12.3,12.3,0,0,0,4.53-16.37,37,37,0,0,0-56.52-40c.17-1.82.26-3.66.26-5.51a58.32,58.32,0,0,0-86.86-50.87,104.73,104.73,0,0,0-199.68.43,83.94,83.94,0,0,0-163.92,6,29.19,29.19,0,0,0-11.91,12.42,62.73,62.73,0,0,0-104.63,46.69c0,.55,0,1.1,0,1.65a52.92,52.92,0,0,0-84.29,32.85,37,37,0,1,0-33.63,64.1,9.51,9.51,0,1,0,5.88,1.15,36.43,36.43,0,0,0,4.2.25,37,37,0,0,0,34.35-23.28,53.08,53.08,0,0,0,19,14.94,26.62,26.62,0,1,0,52.89-4.81,53.05,53.05,0,0,0,14.94-16.2c0,.11,0,.22,0,.33a38.69,38.69,0,0,0,69.59,23.29,52.9,52.9,0,0,0,72.77-6.79,49.67,49.67,0,0,0,84.07,4.19,52.93,52.93,0,0,0,79-8.24,49.58,49.58,0,0,0,48.42-13.27,105.64,105.64,0,0,0,29.91-.52,42.53,42.53,0,0,0,68.48,13.65,58.32,58.32,0,0,0,85.43.73,38.93,38.93,0,0,0,70.52,5.7,25.56,25.56,0,0,0,27.28,3.5,16.43,16.43,0,0,0,25.46-.69,10.83,10.83,0,0,0,17.59-12.6Z" transform="translate(119.05 -181.75)"/></g></svg>