<?xml version="1.0" encoding="utf-8"?>
<!-- Generator: Adobe Illustrator 23.0.1, SVG Export Plug-In . SVG Version: 6.00 Build 0)  -->
<svg version="1.1" id="Layer_1" xmlns="http://www.w3.org/2000/svg" xmlns:xlink="http://www.w3.org/1999/xlink" x="0px" y="0px"
	 viewBox="0 0 660 392" style="enable-background:new 0 0 660 392;" xml:space="preserve">
<style type="text/css">
	.st0{fill:url(#SVGID_1_);}
	.st1{fill:url(#SVGID_2_);}
	.st2{fill:#024866;}
	.st3{fill:url(#SVGID_3_);}
	.st4{opacity:0.55;fill:#F9F8EF;}
	.st5{opacity:0.25;fill:#F9F8EF;}
	.st6{fill:url(#SVGID_4_);}
	.st7{fill:url(#SVGID_5_);}
</style>
<g id="pen">
	<g>
		<linearGradient id="SVGID_1_" gradientUnits="userSpaceOnUse" x1="288.3288" y1="203.3035" x2="127.1084" y2="433.5502">
			<stop  offset="2.577728e-04" style="stop-color:#E9001A"/>
			<stop  offset="4.749952e-02" style="stop-color:#E9031A"/>
			<stop  offset="8.678311e-02" style="stop-color:#E90E1B"/>
			<stop  offset="0.1232" style="stop-color:#E81F1B"/>
			<stop  offset="0.158" style="stop-color:#E7371D"/>
			<stop  offset="0.1915" style="stop-color:#E6571E"/>
			<stop  offset="0.2241" style="stop-color:#E47E20"/>
			<stop  offset="0.256" style="stop-color:#E3AB22"/>
			<stop  offset="0.2865" style="stop-color:#E1DF25"/>
			<stop  offset="0.2993" style="stop-color:#E0F726"/>
			<stop  offset="0.3385" style="stop-color:#CDF83C"/>
			<stop  offset="0.4201" style="stop-color:#9CFA74"/>
			<stop  offset="0.5363" style="stop-color:#4EFDCD"/>
			<stop  offset="0.5863" style="stop-color:#2AFFF6"/>
			<stop  offset="0.75" style="stop-color:#1E00E9"/>
			<stop  offset="0.7837" style="stop-color:#440CEA"/>
			<stop  offset="0.839" style="stop-color:#7D1FEC"/>
			<stop  offset="0.8903" style="stop-color:#A92DED"/>
			<stop  offset="0.9358" style="stop-color:#C937EE"/>
			<stop  offset="0.9739" style="stop-color:#DD3EEF"/>
			<stop  offset="1" style="stop-color:#E440EF"/>
		</linearGradient>
		<path class="st0" d="M376.4,290.1c-1.8,0.8-3.5,1.4-5.2,2c-1.7,0.6-3.4,1.1-5.1,1.6c-3.4,1-6.8,1.9-10.3,2.7
			c-6.9,1.6-13.9,2.7-20.9,3.5c-14,1.6-28.3,1.6-42.4,0.2c-7.1-0.7-14.1-1.8-21-3.3l-2.6-0.6l-2.5-0.6l-4.7-1.1
			c-3.2-0.7-6.3-1.3-9.5-2c-12.6-2.5-25.4-4.5-38.1-5.8c-12.7-1.3-25.5-1.9-38.1-1.1c-6.3,0.4-12.5,1.1-18.5,2.4
			c-6,1.3-11.8,3-16.6,5.7c-2.4,1.3-4.4,2.9-5.7,4.4c-0.6,0.8-1,1.5-1.3,2.1c-0.2,0.6-0.3,1.2-0.3,1.9c0.1,1.4,1.3,3.3,3.1,5.2
			c1.8,1.8,4.2,3.5,6.8,5c2.6,1.5,5.4,2.8,8.4,3.9c3,1.2,6.1,2.3,9.2,3.3c6.2,2.1,12.6,4,19,5.9c12.8,3.8,25.7,7.3,38.5,11.2
			c6.4,2,12.9,4,19.2,6.4c3.2,1.2,6.4,2.4,9.6,3.9c3.2,1.5,6.3,3,9.6,5.4c0.8,0.6,1.6,1.3,2.4,2.2c0.8,0.9,1.7,2,2.2,3.7
			c0.3,0.8,0.4,1.8,0.3,2.8c0,0.3-0.1,0.5-0.1,0.7l-0.1,0.4l-0.1,0.3c-0.1,0.3-0.2,0.7-0.3,1c-0.5,1.3-1.2,2.4-1.9,3.3
			c-1.5,1.8-3.2,3.1-4.8,4.2c-1.7,1-3.3,1.9-5,2.6c-3.3,1.4-6.7,2.5-10.1,3.4c-3.4,0.9-6.7,1.6-10.1,2.2c-6.7,1.2-13.4,2.1-20.2,2.7
			c-6.7,0.6-13.5,1.1-20.2,1.3c-13.5,0.5-26.9,0.4-40.3-0.3c-13.4-0.7-26.8-1.9-40.1-3.9c-6.7-1-13.3-2.2-19.9-3.5
			c-3.3-0.7-6.6-1.4-9.9-2.3c-3.3-0.8-6.5-1.7-9.8-2.7c-3.2-1-6.4-2.1-9.6-3.4c-3.2-1.2-6.3-2.6-9.3-4.2c-6-3.1-11.8-6.9-16.3-12
			c5.5,3.9,11.5,6.6,17.6,8.9c1.5,0.6,3.1,1.1,4.7,1.6c1.6,0.5,3.1,1,4.7,1.5c3.2,0.9,6.3,1.8,9.5,2.6c12.8,3.3,25.8,5.5,39,7.1
			c26.3,3,52.9,4,79.3,2.8c13.2-0.7,26.4-1.9,39.2-4.4c6.3-1.3,12.7-2.9,18.3-5.3c1.4-0.6,2.7-1.3,3.8-2.1c1.1-0.7,2.1-1.6,2.7-2.3
			c0.3-0.4,0.5-0.7,0.6-1c0-0.1,0-0.1,0.1-0.2l0,0l0,0.1c0,0,0,0.1,0,0.1c0,0.2,0,0.3,0,0.4c0,0.1-0.1-0.2-0.4-0.5
			c-0.3-0.3-0.8-0.7-1.3-1.1c-2.1-1.6-5-3-7.9-4.3c-2.9-1.3-6-2.4-9-3.5c-6.2-2.2-12.5-4.1-18.8-6c-12.7-3.8-25.6-7.1-38.5-10.6
			c-6.5-1.7-12.9-3.4-19.5-5.3c-3.3-0.9-6.5-1.9-9.8-3c-3.3-1.1-6.7-2.4-10-3.9c-3.3-1.6-6.6-3.5-9.8-6.1c-1.6-1.3-3.1-2.8-4.5-4.7
			c-1.4-1.8-2.6-4.1-3.2-6.6c-0.7-2.6-0.8-5.4-0.2-8.1c0.6-2.6,1.7-5,2.9-6.9c2.6-4,5.8-6.7,9-9c6.5-4.5,13.3-7.4,20.2-9.7
			c6.9-2.3,13.8-3.9,20.7-5.2c13.9-2.5,27.9-3.4,41.8-3.3c13.9,0.1,27.7,1.2,41.4,3.2c3.4,0.5,6.8,1.1,10.2,1.6l9.8,1.8
			c6.1,1,12.3,1.9,18.6,2.4c12.4,1.2,25,1.4,37.5,0.9c6.3-0.2,12.6-0.7,18.8-1.3c3.1-0.3,6.3-0.7,9.3-1.1l4.6-0.7l4.4-0.7l0.5-0.1
			c6-1,11.7,3.2,12.6,9.2C383.9,283.3,381,288.2,376.4,290.1z"/>
	</g>
	<g>
		
			<linearGradient id="SVGID_2_" gradientUnits="userSpaceOnUse" x1="-408.1845" y1="84.4203" x2="-299.5857" y2="84.4203" gradientTransform="matrix(-0.7071 -0.7071 0.7071 -0.7071 169.2769 4.117)">
			<stop  offset="0" style="stop-color:#FFFFFF"/>
			<stop  offset="2.693921e-02" style="stop-color:#EDF1F8"/>
			<stop  offset="0.1178" style="stop-color:#B7C5E3"/>
			<stop  offset="0.2066" style="stop-color:#8AA1D1"/>
			<stop  offset="0.2913" style="stop-color:#6785C4"/>
			<stop  offset="0.3708" style="stop-color:#4E70BA"/>
			<stop  offset="0.4431" style="stop-color:#3F64B4"/>
			<stop  offset="0.5018" style="stop-color:#3A60B2"/>
			<stop  offset="0.7107" style="stop-color:#93AFD1"/>
			<stop  offset="0.9733" style="stop-color:#B5E0EA"/>
		</linearGradient>
		<path class="st1" d="M376.5,285.9c-2,0-3.8-0.8-5.1-2.2c-2.4-2.6-2.3-6.7,0.1-9.2c1.3-1.3,3-2.1,4.9-2.1c0.5,0,1,0.1,1.5,0.2
			c0.4,0.1,0.8,0.1,1.3,0.1c2.5,0,4.8-1.6,5.6-4.1l43.4-133.1c0.2-0.7,0.8-1.3,1.5-1.6l43-17.1c0.1,0,0.1-0.1,0.2-0.1
			c22.4-11.7,56.1-44.6,65.9-54.4c0.6-0.6,1.3-0.9,2.1-0.9c0.8,0,1.5,0.3,2.1,0.9l53,52.2c0.6,0.6,0.9,1.3,0.8,2.2
			c0,0.8-0.4,1.6-1.1,2.1c-22.8,18.1-41.4,40.2-55,65.8c0,0.1-0.1,0.1-0.1,0.2l-16.9,41.7c-0.3,0.7-0.9,1.3-1.6,1.5l-135,42.8
			c-2.9,0.9-4.6,3.9-4,6.9c0.5,2.2-0.2,4.5-1.8,6.1C380,285.2,378.3,285.9,376.5,285.9z M491.3,152.6c-3.6,0-7,1.4-9.5,3.9
			c-2.6,2.5-4,5.9-4,9.4s1.4,6.9,4,9.4c2.5,2.5,5.9,3.9,9.5,3.9s7-1.4,9.5-3.9c2.6-2.5,4-5.9,4-9.4c0-3.6-1.4-6.9-4-9.4
			C498.3,154,494.9,152.6,491.3,152.6z"/>
		<path class="st2" d="M541,63.6c0.2,0,0.5,0,0.7,0.3l12.1,11.9l40.9,40.3c0.2,0.2,0.3,0.4,0.2,0.6c0,0.2-0.1,0.4-0.3,0.6
			c-23.1,18.3-41.7,40.6-55.5,66.4c-0.1,0.1-0.1,0.3-0.2,0.4l-16.9,41.7c-0.1,0.2-0.2,0.3-0.4,0.3l-134.7,42.7l43.3-132.7
			c0.1-0.2,0.2-0.3,0.4-0.4l43-17.1c0.1-0.1,0.3-0.1,0.4-0.2c7.4-3.8,28.5-16.9,66.4-54.7C540.5,63.6,540.8,63.6,541,63.6
			 M491.3,181.3c4.1,0,8-1.6,10.9-4.5c2.9-2.9,4.6-6.8,4.6-10.9c0-4.1-1.6-8-4.6-10.9c-2.9-2.9-6.8-4.5-10.9-4.5
			c-4.1,0-8,1.6-10.9,4.5c-2.9,2.9-4.6,6.8-4.6,10.9s1.6,8,4.6,10.9C483.3,179.7,487.2,181.3,491.3,181.3 M376.5,274.5
			c0.4,0,0.7,0,1.1,0.1c0.6,0.1,1.1,0.2,1.7,0.2c0.7,0,1.4-0.1,2-0.3c-0.3,1.2-0.3,2.4-0.1,3.7c0.3,1.6-0.1,3.2-1.3,4.3
			c-0.9,0.9-2.1,1.4-3.4,1.4c-1.4,0-2.7-0.6-3.6-1.6c-1.6-1.8-1.6-4.7,0.1-6.4C373.9,275,375.1,274.5,376.5,274.5 M541,59.6
			c-1.3,0-2.5,0.5-3.5,1.5c-10.6,10.6-43.4,42.5-65.4,54l-43,17.1c-1.3,0.5-2.3,1.5-2.7,2.8l-43.4,133.1c-0.5,1.6-2,2.7-3.7,2.7
			c-0.3,0-0.5,0-0.8-0.1c-0.6-0.1-1.3-0.2-2-0.2c-2.3,0-4.6,0.9-6.4,2.7c-3.2,3.3-3.3,8.6-0.2,11.9c1.8,1.9,4.2,2.9,6.5,2.9
			c2.3,0,4.5-0.9,6.3-2.6c2.2-2.2,3-5.2,2.4-8c-0.4-2,0.7-3.9,2.6-4.6l135-42.8c1.3-0.4,2.4-1.4,2.9-2.7l16.9-41.7
			c13.5-25.2,32-47.3,54.5-65.2c2.3-1.8,2.5-5.2,0.4-7.3l-40.9-40.3L544.5,61C543.5,60,542.2,59.6,541,59.6L541,59.6z M491.3,177.3
			c-2.9,0-5.9-1.1-8.1-3.3c-4.5-4.4-4.5-11.6,0-16c2.2-2.2,5.2-3.3,8.1-3.3s5.9,1.1,8.1,3.3c4.5,4.4,4.5,11.6,0,16
			C497.2,176.2,494.2,177.3,491.3,177.3L491.3,177.3z"/>
	</g>
	<g>
		<linearGradient id="SVGID_3_" gradientUnits="userSpaceOnUse" x1="370.1781" y1="230.1835" x2="482.1696" y2="230.1835">
			<stop  offset="0" style="stop-color:#FFFFFF"/>
			<stop  offset="2.693921e-02" style="stop-color:#EDF1F8"/>
			<stop  offset="0.1178" style="stop-color:#B7C5E3"/>
			<stop  offset="0.2066" style="stop-color:#8AA1D1"/>
			<stop  offset="0.2913" style="stop-color:#6785C4"/>
			<stop  offset="0.3708" style="stop-color:#4E70BA"/>
			<stop  offset="0.4431" style="stop-color:#3F64B4"/>
			<stop  offset="0.5018" style="stop-color:#3A60B2"/>
			<stop  offset="0.7107" style="stop-color:#93AFD1"/>
			<stop  offset="0.9733" style="stop-color:#B5E0EA"/>
		</linearGradient>
		<polyline class="st3" points="482.2,175.3 384.3,271.2 370.2,285.1 		"/>
		<path class="st2" d="M485.1,178.3l-28.5,27l-28.6,26.9L399.5,259c-9.6,8.9-18.9,18.1-29,26.4l-0.6-0.6c8.6-9.9,17.9-19.1,27-28.5
			l27.4-28.1l27.4-28.1l27.5-27.9L485.1,178.3z"/>
	</g>
	<polygon class="st4" points="548.1,67.8 555.6,75.3 405.4,212.1 408.3,203.3 	"/>
	<g>
		<path class="st5" d="M388.3,266.4c-0.3,0.1-0.4,0.1-0.4,0.1l-0.1,0.2C387.9,266.6,388.1,266.5,388.3,266.4z"/>
		<path class="st5" d="M427.4,256.6c0,0,49.1-15.2,63.7-23.8c29.5-17.4,27.1-23.8,50.3-52.4c0,0,15.8-25.7,22.8-34.7
			C488.7,239.2,455.6,244.4,427.4,256.6z"/>
	</g>
	<g>
		
			<linearGradient id="SVGID_4_" gradientUnits="userSpaceOnUse" x1="369.0535" y1="591.1015" x2="459.0864" y2="591.1015" gradientTransform="matrix(-0.7071 -0.7071 0.7071 -0.7071 450.7822 792.7201)">
			<stop  offset="0" style="stop-color:#0B5380"/>
			<stop  offset="0.1915" style="stop-color:#0E5583"/>
			<stop  offset="0.3498" style="stop-color:#165D8E"/>
			<stop  offset="0.4964" style="stop-color:#256A9F"/>
			<stop  offset="0.6349" style="stop-color:#397BB7"/>
			<stop  offset="0.7087" style="stop-color:#4687C7"/>
			<stop  offset="0.816" style="stop-color:#296DA4"/>
			<stop  offset="0.9154" style="stop-color:#135A8A"/>
			<stop  offset="0.9745" style="stop-color:#0B5380"/>
		</linearGradient>
		<path class="st6" d="M598.4,120.2c-1.8,0-3.5-0.7-4.8-2l-54.4-53.7c-1.3-1.3-2-2.9-2-4.7c0-1.8,0.7-3.5,2-4.7l9.6-9.5
			c1.3-1.3,3-2,4.8-2s3.5,0.7,4.8,2l54.4,53.7c1.3,1.3,2,2.9,2,4.7c0,1.8-0.7,3.5-2,4.7l-9.6,9.5
			C601.9,119.5,600.2,120.2,598.4,120.2z"/>
		<g>
			<path class="st2" d="M553.6,45.7c1.3,0,2.5,0.5,3.4,1.4l54.4,53.7c0.9,0.9,1.4,2.1,1.4,3.3c0,1.2-0.5,2.4-1.4,3.3l-9.6,9.5
				c-0.9,0.9-2.1,1.4-3.4,1.4c-1.3,0-2.5-0.5-3.4-1.4l-54.4-53.7c-0.9-0.9-1.4-2.1-1.4-3.3s0.5-2.4,1.4-3.3l9.6-9.5
				C551,46.2,552.3,45.7,553.6,45.7 M553.6,41.7c-2.3,0-4.5,0.8-6.2,2.5l-9.6,9.5c-3.4,3.4-3.4,8.9,0,12.3l54.4,53.7
				c1.7,1.7,4,2.5,6.2,2.5s4.5-0.8,6.2-2.5l9.6-9.5c3.4-3.4,3.4-8.9,0-12.3l-54.4-53.7C558.1,42.5,555.8,41.7,553.6,41.7L553.6,41.7
				z"/>
		</g>
	</g>
	<g>
		
			<linearGradient id="SVGID_5_" gradientUnits="userSpaceOnUse" x1="363.6078" y1="629.1451" x2="463.9951" y2="629.1451" gradientTransform="matrix(-0.7071 -0.7071 0.7071 -0.7071 450.7822 792.7201)">
			<stop  offset="0" style="stop-color:#0B5380"/>
			<stop  offset="0.1915" style="stop-color:#0E5583"/>
			<stop  offset="0.3498" style="stop-color:#165D8E"/>
			<stop  offset="0.4964" style="stop-color:#256A9F"/>
			<stop  offset="0.6349" style="stop-color:#397BB7"/>
			<stop  offset="0.7087" style="stop-color:#4687C7"/>
			<stop  offset="0.816" style="stop-color:#296DA4"/>
			<stop  offset="0.9154" style="stop-color:#135A8A"/>
			<stop  offset="0.9745" style="stop-color:#0B5380"/>
		</linearGradient>
		<path class="st7" d="M622.4,102.5c-2.6,0-5.1-1-6.9-2.8L558,42.9c-1.8-1.8-2.8-4.2-2.8-6.8c0-2.6,1-5,2.8-6.8l18.8-18.5
			c1.8-1.8,4.3-2.8,6.9-2.8s5.1,1,6.9,2.8l57.6,56.8c1.8,1.8,2.8,4.2,2.8,6.8c0,2.6-1,5-2.8,6.8l-18.8,18.5
			C627.5,101.5,625.1,102.5,622.4,102.5z"/>
		<path class="st2" d="M583.7,10c2.1,0,4,0.8,5.5,2.2L646.7,69c1.5,1.4,2.3,3.3,2.3,5.3c0,2-0.8,3.9-2.3,5.3l-18.8,18.5
			c-1.5,1.4-3.4,2.2-5.5,2.2c-2.1,0-4-0.8-5.5-2.2l-57.6-56.8c-1.5-1.4-2.3-3.3-2.3-5.3c0-2,0.8-3.9,2.3-5.3l18.8-18.5
			C579.6,10.8,581.6,10,583.7,10 M583.7,6c-3,0-6,1.1-8.3,3.4l-18.8,18.5c-4.6,4.5-4.6,11.9,0,16.4l57.6,56.8
			c2.3,2.3,5.3,3.4,8.3,3.4s6-1.1,8.3-3.4l18.8-18.5c4.6-4.5,4.6-11.9,0-16.4L592,9.4C589.7,7.1,586.7,6,583.7,6L583.7,6z"/>
	</g>
</g>
</svg>
