<?xml version="1.0" encoding="utf-8"?>
<!-- Generator: Adobe Illustrator 23.0.1, SVG Export Plug-In . SVG Version: 6.00 Build 0)  -->
<svg version="1.1" id="Layer_1" xmlns="http://www.w3.org/2000/svg" xmlns:xlink="http://www.w3.org/1999/xlink" x="0px" y="0px"
	 viewBox="0 0 80 80" style="enable-background:new 0 0 80 80;" xml:space="preserve">
<style type="text/css">
	.st0{fill:#ED63FC;}
	.st1{fill:#A932C6;}
</style>
<g>
	<path class="st0" d="M33.3,65.1c0,0-0.3,0-0.3-0.2l-2.3-15.9c-0.1-0.5-0.4-0.9-0.8-1.1l-14.4-7.1c-0.1-0.1-0.2-0.1-0.2-0.3
		c0-0.1,0.1-0.2,0.2-0.3L29.8,33c0.4-0.2,0.7-0.6,0.8-1.1L33,16c0-0.2,0.3-0.2,0.3-0.2c0.1,0,0.1,0,0.2,0.1l11.2,11.5
		c0.3,0.3,0.7,0.5,1.1,0.5c0.1,0,0.2,0,0.3,0c0,0,15.9-2.7,15.9-2.7c0.2,0,0.3,0.1,0.3,0.1c0.1,0.1,0,0.2,0,0.3l-7.5,14.3
		c-0.2,0.4-0.2,1,0,1.4l7.5,14.3c0,0,0.1,0.1,0,0.3c0,0-0.1,0.1-0.2,0.1L46,53.1c-0.1,0-0.2,0-0.3,0c-0.4,0-0.8,0.2-1.1,0.5L33.4,65
		C33.4,65.1,33.3,65.1,33.3,65.1z"/>
	<path class="st1" d="M34.4,16.2L34.4,16.2L34.4,16.2 M34.1,18.6l9.5,9.8c0.6,0.6,1.3,0.9,2.1,0.9c0.2,0,0.3,0,0.5,0l13.4-2.3
		L53.4,39c-0.5,0.9-0.5,1.9,0,2.8l6.3,12.1l-13.4-2.3c-0.2,0-0.3,0-0.5,0c-0.8,0-1.6,0.3-2.1,0.9l-9.5,9.8l-2-13.5
		c-0.1-1-0.8-1.8-1.6-2.3l-12.2-6l12.2-6c0.9-0.4,1.5-1.3,1.6-2.3L34.1,18.6 M62.1,26.5L62.1,26.5L62.1,26.5 M33.3,14.2
		c-0.8,0-1.6,0.6-1.8,1.5l-2.3,15.9l-14.4,7.1c-1.3,0.7-1.3,2.5,0,3.2l14.4,7.1l2.3,15.9c0.1,0.9,0.9,1.5,1.8,1.5
		c0.4,0,0.9-0.2,1.3-0.5l11.2-11.5l15.9,2.7c0.1,0,0.2,0,0.3,0c1.3,0,2.2-1.4,1.6-2.6L56,40.4l7.5-14.3c0.6-1.2-0.3-2.6-1.6-2.6
		c-0.1,0-0.2,0-0.3,0l-15.9,2.7L34.5,14.8C34.2,14.4,33.7,14.2,33.3,14.2L33.3,14.2z"/>
</g>
</svg>
