<?xml version="1.0" encoding="utf-8"?>
<!-- Generator: Adobe Illustrator 23.0.1, SVG Export Plug-In . SVG Version: 6.00 Build 0)  -->
<svg version="1.1" id="Layer_4" xmlns="http://www.w3.org/2000/svg" xmlns:xlink="http://www.w3.org/1999/xlink" x="0px" y="0px"
	 viewBox="0 0 80 80" style="enable-background:new 0 0 80 80;" xml:space="preserve">
<style type="text/css">
	.st0{fill:#B9F9E5;}
	.st1{fill:#03EABE;}
</style>
<title>yellowstar</title>
<g>
	<path class="st0" d="M24.3,67.3c-0.2,0-0.4-0.1-0.5-0.3c-0.1-0.1-0.1-0.2-0.1-0.3l2.7-18.2c0.1-0.5-0.1-1-0.5-1.3L12.5,34.5
		c-0.1-0.1-0.2-0.3-0.2-0.4s0-0.2,0.1-0.4c0.1-0.1,0.2-0.1,0.3-0.2l18.2-3c0.5-0.1,0.9-0.4,1.1-0.8L39.9,13c0.1-0.2,0.3-0.3,0.5-0.3
		c0.1,0,0.2,0,0.2,0.1c0.1,0.1,0.2,0.1,0.3,0.2l8.5,16.4c0.2,0.4,0.7,0.7,1.1,0.8l18.3,2.3c0.3,0,0.5,0.3,0.5,0.6
		c0,0.1-0.1,0.2-0.2,0.3L56.3,46.5c-0.3,0.4-0.5,0.9-0.4,1.3l3.5,18.1c0,0.2,0,0.3-0.1,0.4c0,0.1-0.2,0.2-0.3,0.2c0,0-0.1,0-0.1,0
		c-0.1,0-0.2,0-0.2-0.1l-16.5-8.2c-0.2-0.1-0.4-0.2-0.7-0.2c-0.2,0-0.5,0.1-0.7,0.2l-16.1,8.9C24.5,67.3,24.4,67.3,24.3,67.3z"/>
	<path class="st1" d="M41.3,13.6L41.3,13.6L41.3,13.6 M40.5,15.4l7.6,14.6c0.5,0.9,1.3,1.5,2.3,1.6l16.4,2L55.2,45.4
		c-0.7,0.7-1,1.7-0.8,2.7l3.1,16.2l-14.8-7.4c-0.4-0.2-0.9-0.3-1.3-0.3c-0.5,0-1,0.1-1.5,0.4l-14.4,8L28,48.7c0.1-1-0.2-2-0.9-2.6
		L15,34.8L31.2,32c1-0.2,1.8-0.8,2.2-1.7L40.5,15.4 M40.4,11.2c-0.8,0-1.5,0.4-1.9,1.2l-7.8,16.7l-18.2,3c-0.4,0.1-0.9,0.3-1.2,0.6
		c-0.8,0.8-0.7,2.1,0.1,2.9L25,48.2l-2.7,18.2c-0.1,0.4,0,0.9,0.2,1.3c0.4,0.7,1.1,1.1,1.8,1.1c0.3,0,0.7-0.1,1-0.3l16.1-8.9
		l16.5,8.2c0.3,0.1,0.6,0.2,0.9,0.2c0.1,0,0.3,0,0.4,0c1.1-0.2,1.8-1.3,1.6-2.4l-3.5-18.1l12.9-13.2c0.3-0.3,0.5-0.7,0.6-1.2
		c0.1-1.1-0.7-2.1-1.8-2.3l-18.3-2.3l-8.5-16.4c-0.2-0.4-0.5-0.7-1-0.9C41,11.3,40.7,11.2,40.4,11.2L40.4,11.2z"/>
</g>
</svg>
